<?xml version="1.0" encoding="UTF-8"?>
<svg version="1.1" xmlns="http://www.w3.org/2000/svg" width="300" height="300">
<path d="M0 0 C0.75249023 0.18804199 1.50498047 0.37608398 2.28027344 0.56982422 C40.14635775 10.13142888 74.10148441 34.60284263 94.52734375 68.03515625 C101.74250723 80.31589962 107.33385373 93.01190025 111.3125 106.6875 C111.55508545 107.51789795 111.7976709 108.3482959 112.04760742 109.20385742 C115.4807511 121.60759074 116.44448022 133.94094166 116.4375 146.75 C116.43790283 147.51290344 116.43830566 148.27580688 116.4387207 149.06182861 C116.31548265 189.8440615 100.11359344 226.01389598 71.625 254.875 C66.04808239 260.40097169 60.36663748 265.64366047 54 270.25 C53.14656006 270.8685083 53.14656006 270.8685083 52.27587891 271.49951172 C50.6875 272.578125 50.6875 272.578125 48 274 C43.80977925 272.60325975 42.67869399 269.64481554 40.53125 266.01953125 C39.63496076 264.54637962 38.73644458 263.07458105 37.8359375 261.60400391 C37.36961914 260.84106018 36.90330078 260.07811646 36.42285156 259.29205322 C34.16038237 255.64747079 31.79014796 252.0776532 29.40625 248.51171875 C28.93083267 247.79967285 28.45541534 247.08762695 27.96559143 246.35400391 C26.47885961 244.13062634 24.98942357 241.90907504 23.5 239.6875 C22.44106781 238.10385024 21.3823968 236.52002581 20.32397461 234.93603516 C17.7013909 231.0120071 15.07651106 227.08952206 12.4508667 223.1675415 C8.81744456 217.73934242 5.18859234 212.30809771 1.5625 206.875 C0.83836914 205.79001221 0.11423828 204.70502441 -0.63183594 203.5871582 C-6.25722515 195.14462593 -11.80872337 186.65525513 -17.34790039 178.15600586 C-23.86153316 168.17753279 -30.47045185 158.26382874 -37.10400391 148.36474609 C-42.55421526 140.22200906 -47.93559142 132.03836114 -53.265625 123.81640625 C-55.11258658 120.9768922 -56.96039126 118.13792848 -58.80841064 115.29910278 C-60.01541532 113.43928227 -61.21820903 111.57672182 -62.41668701 109.71139526 C-64.09301161 107.1028334 -65.78327139 104.50381886 -67.4765625 101.90625 C-67.97665833 101.11936295 -68.47675415 100.33247589 -68.99200439 99.52174377 C-69.46208923 98.80622849 -69.93217407 98.0907132 -70.41650391 97.35351562 C-70.82091705 96.7269104 -71.2253302 96.10030518 -71.64199829 95.45471191 C-73.76380577 93.18179974 -76.00971942 93.0831681 -79 92.83203125 C-79.66 92.82558594 -80.32 92.81914063 -81 92.8125 C-81.66 92.79832031 -82.32 92.78414063 -83 92.76953125 C-85.44034058 92.93526829 -85.44034058 92.93526829 -89 95 C-89 134.6 -89 174.2 -89 215 C-84.38 215 -79.76 215 -75 215 C-72.92936379 212.92936379 -73.81428105 208.47891672 -73.79467773 205.62475586 C-73.78477814 204.74678848 -73.77487854 203.86882111 -73.76467896 202.96424866 C-73.73296573 200.04780825 -73.70826789 197.13135152 -73.68359375 194.21484375 C-73.66303269 192.19844629 -73.64203646 190.18205323 -73.62062073 188.16566467 C-73.56531241 182.84739734 -73.5159419 177.52909055 -73.46777344 172.21075439 C-73.4176222 166.78825349 -73.36190293 161.36581018 -73.30664062 155.94335938 C-73.19895198 145.29562207 -73.09753094 134.64783485 -73 124 C-69.28104931 125.23965023 -68.97134972 126.25556084 -67 129.5625 C-64.1233337 134.27966497 -61.08724745 138.84831671 -57.9375 143.38671875 C-52.72080771 150.93951517 -47.5630791 158.53048267 -42.42648315 166.13790894 C-40.95013552 168.32383075 -39.47243212 170.50883068 -37.99438477 172.69360352 C-33.66811708 179.08907429 -29.34382314 185.48580545 -25.03462219 191.89279175 C-15.6596627 205.82853928 -6.11610182 219.58714685 4 233 C5.01213169 234.34864853 6.02385797 235.69760142 7.03515625 237.046875 C8.50650562 239.00947805 9.97855691 240.97151724 11.45385742 242.93115234 C16.035036 249.02161327 20.53615782 255.17003156 25.03955078 261.31811523 C28.80123243 266.43309125 32.65729607 271.4225972 36.7421875 276.28515625 C38 278 38 278 38 280 C25.0387095 286.66580654 12.21106994 291.68440874 -2 295 C-3.16414429 295.29148926 -3.16414429 295.29148926 -4.35180664 295.58886719 C-13.03481082 297.49483035 -21.82895177 297.37217304 -30.67553711 297.37060547 C-33.40088197 297.37494174 -36.12455351 297.4112509 -38.84960938 297.44921875 C-80.18426785 297.71454683 -115.79929714 278.7953474 -144.77734375 250.265625 C-167.55552713 226.60507296 -183.83390732 192.02284589 -184.2734375 158.9375 C-184.28596558 158.07687958 -184.29849365 157.21625916 -184.31140137 156.32955933 C-184.52591713 138.06387099 -184.6933429 120.56303106 -179 103 C-178.78069824 102.28424805 -178.56139648 101.56849609 -178.33544922 100.83105469 C-171.67906604 79.5007122 -159.42247869 60.03545479 -144 44 C-143.53255371 43.50145508 -143.06510742 43.00291016 -142.58349609 42.48925781 C-107.44420225 5.08768009 -50.32347762 -13.47767272 0 0 Z M3 90 C2.59880273 92.43338046 2.39759146 94.63270399 2.3137207 97.08227539 C2.27782837 97.8129422 2.24193604 98.54360901 2.20495605 99.29641724 C2.09264437 101.72980527 2.00577076 104.16299896 1.92578125 106.59765625 C1.89752951 107.43619078 1.86927776 108.2747253 1.84016991 109.13866997 C1.69547945 113.60208221 1.5741716 118.06555722 1.4675293 122.5300293 C1.37572041 126.18051802 1.23777326 129.82436875 1.05541992 133.47143555 C-0.10475054 157.05944215 0.61278807 173.51785652 16.31510925 192.24119568 C17.89472671 194.0875768 17.89472671 194.0875768 20 195 C20.09260404 181.63961027 20.16371644 168.27929666 20.20724869 154.91865158 C20.22814003 148.71502105 20.25648643 142.51160979 20.30175781 136.30810547 C20.34515958 130.32346689 20.36912545 124.33903947 20.37950897 118.35425568 C20.38691048 116.06883672 20.40136354 113.78342956 20.42292023 111.49810028 C20.45187816 108.30153764 20.4559591 105.10585199 20.45410156 101.90917969 C20.46848267 100.96043472 20.48286377 100.01168976 20.49768066 99.03419495 C20.50957736 93.86912759 20.50957736 93.86912759 18.12615967 89.40948486 C15.52863415 87.68751969 14.03354011 87.52226564 10.9375 87.625 C9.65166016 87.64433594 9.65166016 87.64433594 8.33984375 87.6640625 C5.73297925 87.86686395 5.73297925 87.86686395 3 90 Z " fill="#FFFFFF" transform="translate(184,3)"/>
</svg>
