<?xml version="1.0" encoding="UTF-8"?>
<svg version="1.1" xmlns="http://www.w3.org/2000/svg" width="621" height="621">
<path d="M0 0 C0.92748047 -0.00128906 1.85496094 -0.00257813 2.81054688 -0.00390625 C3.78185547 -0.00003906 4.75316406 0.00382813 5.75390625 0.0078125 C6.72134766 0.00394531 7.68878906 0.00007812 8.68554688 -0.00390625 C9.61431641 -0.00261719 10.54308594 -0.00132812 11.5 0 C12.77701782 0.00169189 12.77701782 0.00169189 14.07983398 0.00341797 C16.31640625 0.1328125 16.31640625 0.1328125 19.31640625 1.1328125 C21.04660116 1.32321672 22.77717468 1.51101973 24.50976562 1.67822266 C33.63520516 2.58600024 41.75627886 4.9104657 50.31640625 8.1328125 C50.31640625 8.7928125 50.31640625 9.4528125 50.31640625 10.1328125 C51.05890625 10.2565625 51.80140625 10.3803125 52.56640625 10.5078125 C55.1178211 11.08767951 57.04316355 11.86989989 59.31640625 13.1328125 C59.31640625 13.7928125 59.31640625 14.4528125 59.31640625 15.1328125 C60.96640625 15.7928125 62.61640625 16.4528125 64.31640625 17.1328125 C64.31640625 17.7928125 64.31640625 18.4528125 64.31640625 19.1328125 C64.85523438 19.19339844 65.3940625 19.25398438 65.94921875 19.31640625 C69.35161129 20.48983866 71.61768187 22.77186977 74.19140625 25.1953125 C74.98659668 25.93479126 74.98659668 25.93479126 75.79785156 26.68920898 C79.7611449 30.44605542 83.58829947 34.35862563 86.31640625 39.1328125 C86.31640625 39.7928125 86.31640625 40.4528125 86.31640625 41.1328125 C86.97640625 41.1328125 87.63640625 41.1328125 88.31640625 41.1328125 C100.14302532 56.46222002 106.0683924 76.51183249 108.703125 95.30078125 C108.89629803 98.90819682 108.89629803 98.90819682 110.31640625 100.1328125 C111.51315315 107.27981849 111.44158404 114.53540251 111.37890625 121.7578125 C111.37439453 122.76199219 111.36988281 123.76617187 111.36523438 124.80078125 C111.35359592 127.24485721 111.33724865 129.6888007 111.31640625 132.1328125 C104.0724665 133.26633835 96.9363434 133.27382776 89.61450195 133.26220703 C88.23854527 133.26356427 86.86258894 133.26534601 85.4866333 133.26751709 C81.7647322 133.2720586 78.04285898 133.27031391 74.32095742 133.267138 C70.40034684 133.26459078 66.4797385 133.2669591 62.55912781 133.26852417 C55.96283546 133.27034179 49.36655432 133.26795316 42.77026367 133.26318359 C35.19856905 133.25777112 27.62690149 133.25948319 20.05520755 133.26501 C13.5163409 133.26958809 6.97748228 133.2701681 0.43861455 133.26757133 C-3.44918401 133.26603033 -7.33696999 133.26575314 -11.22476768 133.26910782 C-27.73453627 133.2814667 -44.19906381 133.16113956 -60.68359375 132.1328125 C-59.47338907 153.23633026 -56.53424625 171.96349741 -41.68359375 188.1328125 C-39.42416732 189.94299625 -37.08778311 191.51366457 -34.68359375 193.1328125 C-34.68359375 193.7928125 -34.68359375 194.4528125 -34.68359375 195.1328125 C-33.79671875 195.4009375 -32.90984375 195.6690625 -31.99609375 195.9453125 C-28.06411732 197.35488896 -24.89035245 199.33801625 -21.41796875 201.625 C-6.49590836 209.85345045 17.64493931 207.98372863 33.58203125 204.08203125 C36.64524122 203.01865979 39.42424563 201.59114773 42.31640625 200.1328125 C42.97640625 200.1328125 43.63640625 200.1328125 44.31640625 200.1328125 C44.31640625 199.4728125 44.31640625 198.8128125 44.31640625 198.1328125 C46.28138947 196.7483925 48.2868909 195.42077416 50.31640625 194.1328125 C51.05890625 193.5553125 51.80140625 192.9778125 52.56640625 192.3828125 C54.31640625 191.1328125 54.31640625 191.1328125 56.31640625 191.1328125 C56.58453125 190.3696875 56.85265625 189.6065625 57.12890625 188.8203125 C58.29752087 186.1755531 59.32575423 185.12346452 61.31640625 183.1328125 C62.50668609 180.53365712 62.50668609 180.53365712 63.31640625 178.1328125 C63.97640625 178.1328125 64.63640625 178.1328125 65.31640625 178.1328125 C65.35378906 177.51792969 65.39117187 176.90304687 65.4296875 176.26953125 C65.52830078 175.05716797 65.52830078 175.05716797 65.62890625 173.8203125 C65.68691406 173.01980469 65.74492187 172.21929687 65.8046875 171.39453125 C66.45233797 168.53201506 66.89263488 167.81259222 69.31640625 166.1328125 C72.17534956 165.85896017 74.81170429 165.76008736 77.66796875 165.8046875 C78.88992447 165.80749725 78.88992447 165.80749725 80.13656616 165.81036377 C81.8563853 165.81708141 83.57618923 165.83099028 85.29589844 165.8515625 C87.93829426 165.88277574 90.58009418 165.89253892 93.22265625 165.8984375 C94.89193441 165.90760507 96.56120647 165.91798006 98.23046875 165.9296875 C99.02522614 165.93393738 99.81998352 165.93818726 100.63882446 165.94256592 C106.19923936 166.01564561 106.19923936 166.01564561 107.31640625 167.1328125 C107.73943973 172.82188348 106.63602469 177.14258381 104.69140625 182.3828125 C104.41925293 183.12861572 104.14709961 183.87441895 103.86669922 184.64282227 C99.13382322 197.26609815 92.14296677 207.86776973 82.31640625 217.1328125 C81.75953125 217.7309375 81.20265625 218.3290625 80.62890625 218.9453125 C79.31640625 220.1328125 79.31640625 220.1328125 77.31640625 220.1328125 C77.13722656 220.69613281 76.95804688 221.25945312 76.7734375 221.83984375 C74.58562604 225.28286072 71.48417088 226.80647015 68.00390625 228.8203125 C67.33939453 229.22314453 66.67488281 229.62597656 65.99023438 230.04101562 C62.45967053 232.12582929 59.46332408 233.65956656 55.31640625 234.1328125 C55.31640625 234.7928125 55.31640625 235.4528125 55.31640625 236.1328125 C54.21232422 236.42285156 54.21232422 236.42285156 53.0859375 236.71875 C52.11011719 236.97914063 51.13429687 237.23953125 50.12890625 237.5078125 C49.16597656 237.76304687 48.20304688 238.01828125 47.2109375 238.28125 C44.36132463 239.06501427 44.36132463 239.06501427 41.88671875 240.1328125 C18.40966669 249.26674157 -13.63509342 246.21780453 -36.68359375 237.1328125 C-37.67359375 236.8028125 -38.66359375 236.4728125 -39.68359375 236.1328125 C-39.68359375 235.4728125 -39.68359375 234.8128125 -39.68359375 234.1328125 C-41.04484375 233.9471875 -41.04484375 233.9471875 -42.43359375 233.7578125 C-45.27329698 233.21171573 -47.20949966 232.56017447 -49.68359375 231.1328125 C-49.68359375 230.4728125 -49.68359375 229.8128125 -49.68359375 229.1328125 C-50.55177734 228.95492187 -50.55177734 228.95492187 -51.4375 228.7734375 C-57.46881687 227.05320104 -62.63872717 222.80968949 -66.68359375 218.1328125 C-66.68359375 217.4728125 -66.68359375 216.8128125 -66.68359375 216.1328125 C-67.24046875 215.9059375 -67.79734375 215.6790625 -68.37109375 215.4453125 C-71.34518963 213.75731214 -73.4036824 211.66604733 -75.68359375 209.1328125 C-75.68359375 208.4728125 -75.68359375 207.8128125 -75.68359375 207.1328125 C-76.34359375 207.1328125 -77.00359375 207.1328125 -77.68359375 207.1328125 C-78.65036811 205.78623393 -79.60226826 204.42693819 -80.484375 203.0234375 C-81.32388403 201.69991187 -82.19976415 200.39908267 -83.1015625 199.1171875 C-90.4858863 188.56272984 -95.74868925 176.0606848 -98.19140625 163.3984375 C-98.68879157 160.95495862 -98.68879157 160.95495862 -99.671875 157.921875 C-100.80135518 153.69177549 -101.31532672 149.60294079 -101.74609375 145.2578125 C-101.82333482 140.29646715 -101.82333482 140.29646715 -103.68359375 136.1328125 C-103.78437495 133.76882782 -103.8233259 131.43469939 -103.81640625 129.0703125 C-103.81736298 128.36382568 -103.8183197 127.65733887 -103.81930542 126.92944336 C-103.81998708 125.43310457 -103.8181338 123.93676283 -103.81396484 122.44042969 C-103.80861632 120.14251093 -103.81391026 117.84478764 -103.8203125 115.546875 C-103.81965172 114.09635373 -103.81837055 112.64583259 -103.81640625 111.1953125 C-103.81843048 110.5036499 -103.82045471 109.8119873 -103.82254028 109.09936523 C-103.79854599 104.24776474 -103.79854599 104.24776474 -102.68359375 103.1328125 C-102.42330038 101.75500782 -102.2168955 100.36691109 -102.03515625 98.9765625 C-101.9165625 98.11804688 -101.79796875 97.25953125 -101.67578125 96.375 C-101.43523749 94.57859871 -101.19812919 92.78173328 -100.96484375 90.984375 C-99.73373858 82.15708898 -96.84673886 74.28559793 -93.49609375 66.0703125 C-93.22345703 65.39548828 -92.95082031 64.72066406 -92.66992188 64.02539062 C-92.01024064 62.39354756 -91.34727954 60.76303098 -90.68359375 59.1328125 C-90.02359375 59.1328125 -89.36359375 59.1328125 -88.68359375 59.1328125 C-88.62042969 58.46894531 -88.55726562 57.80507812 -88.4921875 57.12109375 C-87.3658991 52.95872358 -85.15903719 49.85681445 -82.74609375 46.3203125 C-82.29041016 45.62744141 -81.83472656 44.93457031 -81.36523438 44.22070312 C-80.1965302 42.48390263 -78.94601337 40.80273529 -77.68359375 39.1328125 C-77.02359375 39.1328125 -76.36359375 39.1328125 -75.68359375 39.1328125 C-75.45671875 38.5965625 -75.22984375 38.0603125 -74.99609375 37.5078125 C-71.77821424 31.68498292 -67.23828738 27.68797353 -61.99609375 23.7578125 C-61.41537109 23.30792969 -60.83464844 22.85804688 -60.23632812 22.39453125 C-55.94850636 19.1328125 -55.94850636 19.1328125 -53.68359375 19.1328125 C-53.68359375 18.4728125 -53.68359375 17.8128125 -53.68359375 17.1328125 C-51.70359375 16.4728125 -49.72359375 15.8128125 -47.68359375 15.1328125 C-47.68359375 14.4728125 -47.68359375 13.8128125 -47.68359375 13.1328125 C-34.2348466 6.42894006 -34.2348466 6.42894006 -26.68359375 6.1328125 C-26.68359375 5.4728125 -26.68359375 4.8128125 -26.68359375 4.1328125 C-20.70102131 2.82173811 -14.82391123 1.8525523 -8.71484375 1.37890625 C-5.56652535 0.99747537 -3.31669036 0.00440004 0 0 Z M-20.68359375 40.1328125 C-20.68359375 40.7928125 -20.68359375 41.4528125 -20.68359375 42.1328125 C-21.36421875 42.2153125 -22.04484375 42.2978125 -22.74609375 42.3828125 C-26.4896475 43.33861346 -29.46563631 45.06795647 -32.68359375 47.1328125 C-33.30234375 47.50921875 -33.92109375 47.885625 -34.55859375 48.2734375 C-47.58343102 56.99167535 -56.13482301 73.22449621 -59.68359375 88.1328125 C-60.01359375 91.7628125 -60.34359375 95.3928125 -60.68359375 99.1328125 C-17.78359375 99.1328125 25.11640625 99.1328125 69.31640625 99.1328125 C65.49704567 78.76288941 59.01594972 63.85546801 43.87890625 49.8828125 C40.88564432 47.83863362 37.78963139 46.09290699 34.59765625 44.37890625 C32.31640625 43.1328125 32.31640625 43.1328125 29.95703125 41.5859375 C15.19472983 33.46230418 -5.09117278 36.60720453 -20.68359375 40.1328125 Z " fill="#FDFDFD" transform="translate(186.68359375,188.8671875)"/>
<path d="M0 0 C1.34731453 -0.01441132 1.34731453 -0.01441132 2.72184753 -0.02911377 C3.69575943 -0.03336365 4.66967133 -0.03761353 5.6730957 -0.04199219 C6.67468216 -0.04769226 7.67626862 -0.05339233 8.70820618 -0.05926514 C10.83247824 -0.06872475 12.95676505 -0.07525292 15.08105469 -0.07910156 C18.31837961 -0.08877605 21.55506134 -0.11977777 24.79223633 -0.15136719 C26.85668569 -0.15790035 28.92113958 -0.16314959 30.9855957 -0.16699219 C31.94938644 -0.17933899 32.91317719 -0.19168579 33.90617371 -0.20440674 C39.60685143 -0.18568809 43.62430003 0.42926523 48.66137695 3.16113281 C50.3762207 5.00097656 50.3762207 5.00097656 51.59887695 7.09863281 C52.0887207 7.90042969 52.57856445 8.70222656 53.08325195 9.52832031 C53.86442383 10.8315625 53.86442383 10.8315625 54.66137695 12.16113281 C55.88037858 14.02199813 57.11025458 15.87576936 58.34887695 17.72363281 C59.02305664 18.73425781 59.69723633 19.74488281 60.3918457 20.78613281 C66.74837475 30.2628306 73.19709808 39.66999493 80.00512695 48.82910156 C81.69399351 51.20705754 83.1875995 53.64533242 84.66137695 56.16113281 C85.21825195 57.04800781 85.77512695 57.93488281 86.34887695 58.84863281 C87.66137695 61.16113281 87.66137695 61.16113281 87.66137695 63.16113281 C89.14637695 63.65613281 89.14637695 63.65613281 90.66137695 64.16113281 C91.61332063 65.72504028 92.55238722 67.29847749 93.41918945 68.91113281 C94.94878523 71.68172139 96.60407806 74.35562337 98.28637695 77.03613281 C98.87676758 77.98230469 99.4671582 78.92847656 100.07543945 79.90332031 C101.46427925 82.26044011 101.46427925 82.26044011 103.66137695 83.16113281 C103.91145508 82.62230469 104.1615332 82.08347656 104.41918945 81.52832031 C105.93657887 78.63669142 107.7107211 75.99361489 109.53637695 73.28613281 C110.21442383 72.27808594 110.8924707 71.27003906 111.59106445 70.23144531 C112.27426758 69.21824219 112.9574707 68.20503906 113.66137695 67.16113281 C114.36520508 66.04480469 115.0690332 64.92847656 115.79418945 63.77832031 C116.41036133 62.91464844 117.0265332 62.05097656 117.66137695 61.16113281 C118.32137695 61.16113281 118.98137695 61.16113281 119.66137695 61.16113281 C119.97075195 60.37738281 120.28012695 59.59363281 120.59887695 58.78613281 C121.66137695 56.16113281 121.66137695 56.16113281 122.66137695 54.16113281 C123.32137695 54.16113281 123.98137695 54.16113281 124.66137695 54.16113281 C124.75032227 53.608125 124.83926758 53.05511719 124.9309082 52.48535156 C125.87611151 49.47788651 127.44669402 47.48451428 129.34887695 44.97363281 C132.57231919 40.66799364 135.57821953 36.29935317 138.43481445 31.74316406 C138.83958008 31.22109375 139.2443457 30.69902344 139.66137695 30.16113281 C140.32137695 30.16113281 140.98137695 30.16113281 141.66137695 30.16113281 C141.91661133 29.26652344 142.1718457 28.37191406 142.43481445 27.45019531 C143.67725651 24.11855133 144.98261823 22.2070244 147.28637695 19.53613281 C151.23720076 14.80090137 154.5947964 9.83185595 157.8996582 4.62988281 C159.66137695 2.16113281 159.66137695 2.16113281 162.66137695 0.16113281 C164.80644226 -0.07937622 164.80644226 -0.07937622 167.31640625 -0.06591797 C168.72752937 -0.06569138 168.72752937 -0.06569138 170.16716003 -0.06546021 C171.1797438 -0.05513763 172.19232758 -0.04481506 173.2355957 -0.03417969 C174.79404961 -0.02993484 174.79404961 -0.02993484 176.38398743 -0.02560425 C179.70573392 -0.0144 183.02721181 0.01070517 186.34887695 0.03613281 C188.5995241 0.04616229 190.85017548 0.0552882 193.10083008 0.06347656 C198.62110418 0.08554011 204.14122138 0.1190201 209.66137695 0.16113281 C210.27001953 2.48144531 210.27001953 2.48144531 210.66137695 5.16113281 C209.30665902 7.40174495 208.02088585 9.1849577 206.34887695 11.16113281 C205.41885669 12.31320801 204.48917887 13.46555973 203.55981445 14.61816406 C202.83810059 15.49722412 202.83810059 15.49722412 202.10180664 16.39404297 C199.83842711 19.17071095 197.65517342 22.00732398 195.47387695 24.84863281 C195.05887939 25.38617188 194.64388184 25.92371094 194.21630859 26.47753906 C191.05647982 30.58951621 188.06735518 34.80145384 185.1262207 39.07128906 C183.4080689 41.52251897 181.55645139 43.84493072 179.66137695 46.16113281 C179.00137695 47.15113281 178.34137695 48.14113281 177.66137695 49.16113281 C177.00137695 49.16113281 176.34137695 49.16113281 175.66137695 49.16113281 C175.44481445 49.83273438 175.22825195 50.50433594 175.00512695 51.19628906 C173.23360432 55.10496836 170.78112106 58.21905659 168.16137695 61.59863281 C163.54641963 67.62850716 159.06633955 73.72313572 154.78442383 79.99487305 C153.79156696 81.41845458 152.73254426 82.79550119 151.66137695 84.16113281 C151.00137695 84.16113281 150.34137695 84.16113281 149.66137695 84.16113281 C149.32106445 85.18207031 149.32106445 85.18207031 148.97387695 86.22363281 C147.34911549 89.86000371 145.33334439 93.18942544 142.66137695 96.16113281 C142.00137695 96.16113281 141.34137695 96.16113281 140.66137695 96.16113281 C140.00137695 97.81113281 139.34137695 99.46113281 138.66137695 101.16113281 C138.00137695 101.16113281 137.34137695 101.16113281 136.66137695 101.16113281 C136.29012695 102.24394531 136.29012695 102.24394531 135.91137695 103.34863281 C134.66137695 106.16113281 134.66137695 106.16113281 132.47387695 108.66113281 C130.4130378 110.95826599 130.4130378 110.95826599 130.76293945 113.46582031 C131.9272269 116.95868265 133.79789918 119.0298576 136.22387695 121.78613281 C140.66137695 126.83975996 140.66137695 126.83975996 140.66137695 130.16113281 C141.65137695 130.49113281 142.64137695 130.82113281 143.66137695 131.16113281 C144.72174281 132.79005946 145.71338404 134.46434549 146.66137695 136.16113281 C148.49370943 138.77819012 150.36186596 141.36657001 152.2355957 143.95410156 C153.66137695 146.16113281 153.66137695 146.16113281 153.66137695 148.16113281 C154.32137695 148.16113281 154.98137695 148.16113281 155.66137695 148.16113281 C156.92651367 149.62646484 156.92651367 149.62646484 158.34106445 151.66894531 C158.85797852 152.40886719 159.37489258 153.14878906 159.9074707 153.91113281 C160.44500977 154.69488281 160.98254883 155.47863281 161.53637695 156.28613281 C162.06618164 157.04667969 162.59598633 157.80722656 163.1418457 158.59082031 C164.65875508 160.77396533 166.16096159 162.96663374 167.66137695 165.16113281 C168.08193359 165.76280273 168.50249023 166.36447266 168.93579102 166.984375 C171.66137695 170.93467356 171.66137695 170.93467356 171.66137695 173.16113281 C172.65137695 173.49113281 173.64137695 173.82113281 174.66137695 174.16113281 C175.72174281 175.79005946 176.71338404 177.46434549 177.66137695 179.16113281 C179.49370943 181.77819012 181.36186596 184.36657001 183.2355957 186.95410156 C184.66137695 189.16113281 184.66137695 189.16113281 184.66137695 191.16113281 C185.32137695 191.16113281 185.98137695 191.16113281 186.66137695 191.16113281 C188.1340332 192.98925781 188.1340332 192.98925781 189.72387695 195.41113281 C190.25110352 196.20003906 190.77833008 196.98894531 191.3215332 197.80175781 C192.66137695 200.16113281 192.66137695 200.16113281 193.1574707 202.39550781 C193.32375977 202.97816406 193.49004883 203.56082031 193.66137695 204.16113281 C194.65137695 204.49113281 195.64137695 204.82113281 196.66137695 205.16113281 C197.34887695 207.22363281 197.34887695 207.22363281 197.66137695 209.16113281 C198.32137695 209.16113281 198.98137695 209.16113281 199.66137695 209.16113281 C201.1340332 210.98925781 201.1340332 210.98925781 202.72387695 213.41113281 C203.25110352 214.20003906 203.77833008 214.98894531 204.3215332 215.80175781 C205.66137695 218.16113281 205.66137695 218.16113281 206.1574707 220.39550781 C206.32375977 220.97816406 206.49004883 221.56082031 206.66137695 222.16113281 C207.65137695 222.49113281 208.64137695 222.82113281 209.66137695 223.16113281 C210.58635001 224.46294674 211.49858137 225.77565988 212.3449707 227.12988281 C214.10133169 229.83999472 216.00624736 232.42875968 217.91137695 235.03613281 C218.6177832 236.00292969 219.32418945 236.96972656 220.05200195 237.96582031 C220.84864258 239.0525 220.84864258 239.0525 221.66137695 240.16113281 C221.00137695 241.48113281 220.34137695 242.80113281 219.66137695 244.16113281 C202.83137695 244.16113281 186.00137695 244.16113281 168.66137695 244.16113281 C168.66137695 243.50113281 168.66137695 242.84113281 168.66137695 242.16113281 C167.67137695 241.83113281 166.68137695 241.50113281 165.66137695 241.16113281 C164.0559082 239.20019531 164.0559082 239.20019531 162.47387695 236.78613281 C161.94407227 235.99464844 161.41426758 235.20316406 160.8684082 234.38769531 C159.66137695 232.16113281 159.66137695 232.16113281 159.66137695 229.16113281 C159.00137695 229.16113281 158.34137695 229.16113281 157.66137695 229.16113281 C156.17322088 227.08498839 154.811617 225.01927362 153.47387695 222.84863281 C152.6692335 221.5660531 151.86454542 220.28350138 151.05981445 219.00097656 C150.4579834 218.03393799 150.4579834 218.03393799 149.84399414 217.04736328 C147.57168406 213.42311315 145.21342191 209.85315638 142.8762207 206.27050781 C141.66137695 204.16113281 141.66137695 204.16113281 141.66137695 202.16113281 C141.00137695 202.16113281 140.34137695 202.16113281 139.66137695 202.16113281 C138.1887207 200.29785156 138.1887207 200.29785156 136.59887695 197.84863281 C136.07165039 197.048125 135.54442383 196.24761719 135.0012207 195.42285156 C133.66137695 193.16113281 133.66137695 193.16113281 132.66137695 190.16113281 C132.00137695 189.83113281 131.34137695 189.50113281 130.66137695 189.16113281 C129.93443791 187.18224321 129.26321444 185.18158724 128.66137695 183.16113281 C128.00137695 183.16113281 127.34137695 183.16113281 126.66137695 183.16113281 C125.25954696 181.10154395 123.97696963 179.05863476 122.72387695 176.91113281 C120.01151033 172.28936564 120.01151033 172.28936564 116.9074707 167.92675781 C115.66137695 166.16113281 115.66137695 166.16113281 115.66137695 163.16113281 C114.67137695 162.83113281 113.68137695 162.50113281 112.66137695 162.16113281 C110.9777832 159.57910156 110.9777832 159.57910156 109.22387695 156.34863281 C107.05484737 152.36479996 105.03011107 149.21890686 101.66137695 146.16113281 C100.67137695 148.47113281 99.68137695 150.78113281 98.66137695 153.16113281 C98.00137695 153.16113281 97.34137695 153.16113281 96.66137695 153.16113281 C96.42418945 153.8353125 96.18700195 154.50949219 95.94262695 155.20410156 C94.35109849 158.8772328 92.32623612 162.11568033 90.16137695 165.47363281 C89.55616211 166.44139648 89.55616211 166.44139648 88.9387207 167.42871094 C87.90291953 169.04394543 86.78797147 170.60786164 85.66137695 172.16113281 C85.00137695 172.16113281 84.34137695 172.16113281 83.66137695 172.16113281 C83.53762695 172.73863281 83.41387695 173.31613281 83.28637695 173.91113281 C82.65488871 176.18449048 81.77279504 178.08648571 80.66137695 180.16113281 C80.00137695 180.16113281 79.34137695 180.16113281 78.66137695 180.16113281 C78.42418945 180.8353125 78.18700195 181.50949219 77.94262695 182.20410156 C76.35109849 185.8772328 74.32623612 189.11568033 72.16137695 192.47363281 C71.55616211 193.44139648 71.55616211 193.44139648 70.9387207 194.42871094 C69.90291953 196.04394543 68.78797147 197.60786164 67.66137695 199.16113281 C67.00137695 199.16113281 66.34137695 199.16113281 65.66137695 199.16113281 C65.43450195 200.00675781 65.20762695 200.85238281 64.97387695 201.72363281 C63.46899078 205.66500137 61.53434441 209.0487514 58.66137695 212.16113281 C58.00137695 212.16113281 57.34137695 212.16113281 56.66137695 212.16113281 C56.51700195 212.75925781 56.37262695 213.35738281 56.22387695 213.97363281 C55.77413306 215.72263686 55.23245354 217.44790304 54.66137695 219.16113281 C54.00137695 219.49113281 53.34137695 219.82113281 52.66137695 220.16113281 C51.6896189 221.81291162 50.72403712 223.46881192 49.79858398 225.14697266 C47.89078075 228.52597151 45.74373896 231.74186921 43.59887695 234.97363281 C43.16510742 235.64072266 42.73133789 236.3078125 42.28442383 236.99511719 C40.25946625 240.04950525 38.74485211 242.10548271 35.66137695 244.16113281 C33.47834778 244.40164185 33.47834778 244.40164185 30.91455078 244.38818359 C29.95378128 244.38803253 28.99301178 244.38788147 28.00312805 244.38772583 C26.9686705 244.37740326 25.93421295 244.36708069 24.8684082 244.35644531 C23.27666023 244.35220047 23.27666023 244.35220047 21.65275574 244.34786987 C18.25968198 244.33666466 14.86687108 244.31155928 11.47387695 244.28613281 C9.17505264 244.27610346 6.87622419 244.26697753 4.57739258 244.25878906 C-1.06136916 244.23672422 -6.69997732 244.20324326 -12.33862305 244.16113281 C-12.93310547 242.32275391 -12.93310547 242.32275391 -13.33862305 240.16113281 C-11.8269043 237.57519531 -11.8269043 237.57519531 -9.65112305 234.78613281 C-6.15389455 230.23670424 -6.15389455 230.23670424 -2.96362305 225.47363281 C-2.15924805 224.32894531 -2.15924805 224.32894531 -1.33862305 223.16113281 C-0.67862305 223.16113281 -0.01862305 223.16113281 0.66137695 223.16113281 C0.92950195 222.42765625 1.19762695 221.69417969 1.47387695 220.93847656 C2.63595688 218.22058568 3.93691773 216.11549092 5.66137695 213.72363281 C6.27239258 212.86898437 6.8834082 212.01433594 7.51293945 211.13378906 C8.22192383 210.1528125 8.9309082 209.17183594 9.66137695 208.16113281 C11.00160987 206.29506931 12.33992508 204.42765234 13.67700195 202.55932617 C14.57351636 201.30745845 15.47191383 200.05693683 16.37231445 198.80786133 C18.69744454 195.59665022 18.69744454 195.59665022 20.66137695 192.16113281 C21.32137695 192.16113281 21.98137695 192.16113281 22.66137695 192.16113281 C22.92176758 191.43539062 23.1821582 190.70964844 23.45043945 189.96191406 C24.70221655 187.06667479 26.15182213 184.87330014 28.03637695 182.34863281 C28.73891602 181.40117187 29.44145508 180.45371094 30.1652832 179.47753906 C30.99626012 178.37127756 31.82838652 177.26587898 32.66137695 176.16113281 C33.15621582 175.50483887 33.65105469 174.84854492 34.16088867 174.17236328 C34.68569824 173.47643066 35.21050781 172.78049805 35.7512207 172.06347656 C36.28376465 171.35618408 36.81630859 170.6488916 37.36499023 169.92016602 C38.41908998 168.52200427 39.47595847 167.12592466 40.53588867 165.73217773 C43.12797612 162.30312404 45.49714027 158.88188356 47.66137695 155.16113281 C48.81129576 153.4414815 49.97819277 151.73306802 51.16137695 150.03613281 C51.74918945 149.18792969 52.33700195 148.33972656 52.94262695 147.46582031 C54.66137695 145.16113281 54.66137695 145.16113281 56.13012695 143.79394531 C58.03453205 141.76322764 59.21940337 139.45804055 60.55932617 137.03369141 C62.35603954 133.98079121 64.52915216 131.24747539 66.72387695 128.47363281 C67.5899107 127.36567582 68.45579969 126.25760567 69.3215332 125.14941406 C70.67597022 123.41962388 72.06396183 121.71316258 73.5324707 120.07910156 C74.88310004 118.17810174 74.88310004 118.17810174 74.5715332 115.70019531 C73.51620313 112.75614145 72.12090324 110.91354554 70.09887695 108.53613281 C66.66137695 104.4830644 66.66137695 104.4830644 66.66137695 101.16113281 C65.17637695 100.66613281 65.17637695 100.66613281 63.66137695 100.16113281 C63.32804362 98.82779948 62.99471029 97.49446615 62.66137695 96.16113281 C61.17637695 95.66613281 61.17637695 95.66613281 59.66137695 95.16113281 C58.0559082 93.16503906 58.0559082 93.16503906 56.47387695 90.72363281 C55.94407227 89.92054688 55.41426758 89.11746094 54.8684082 88.29003906 C53.66137695 86.16113281 53.66137695 86.16113281 53.66137695 84.16113281 C53.00137695 84.16113281 52.34137695 84.16113281 51.66137695 84.16113281 C50.73183229 82.81845719 49.81322909 81.46708489 48.9465332 80.08300781 C46.86003177 76.96276859 44.4342006 74.10958846 42.05200195 71.21191406 C40.66137695 69.16113281 40.66137695 69.16113281 40.66137695 66.16113281 C39.67137695 65.83113281 38.68137695 65.50113281 37.66137695 65.16113281 C36.72510464 63.84341622 35.80286754 62.51407238 34.94262695 61.14550781 C30.02622828 53.53108547 24.33649291 46.37825417 18.88793945 39.14160156 C16.07945847 35.38217877 13.33438727 31.57869319 10.5871582 27.77441406 C8.1447978 24.46013595 5.5943037 21.23974819 3.0090332 18.03613281 C1.66137695 16.16113281 1.66137695 16.16113281 0.66137695 13.16113281 C-0.98406085 11.4735043 -2.65150882 9.80709792 -4.33862305 8.16113281 C-6.33862305 5.16113281 -6.33862305 5.16113281 -6.33862305 1.16113281 C-4.00307425 -0.00664159 -2.60241802 0.02244648 0 0 Z " fill="#FCFCFC" transform="translate(317.338623046875,188.8388671875)"/>
<path d="M0 0 C0.85021729 0.00410889 1.70043457 0.00821777 2.57641602 0.01245117 C3.50389648 0.01438477 4.43137695 0.01631836 5.38696289 0.01831055 C6.84392578 0.03667969 6.84392578 0.03667969 8.33032227 0.05541992 C9.29776367 0.05606445 10.26520508 0.05670898 11.26196289 0.05737305 C18.4712622 0.1023999 18.4712622 0.1023999 21.89282227 1.24291992 C23.62301718 1.43332415 25.35359069 1.62112715 27.08618164 1.78833008 C36.21162118 2.69610766 44.33269488 5.02057312 52.89282227 8.24291992 C52.89282227 8.90291992 52.89282227 9.56291992 52.89282227 10.24291992 C53.63532227 10.36666992 54.37782227 10.49041992 55.14282227 10.61791992 C57.69423711 11.19778693 59.61957957 11.98000731 61.89282227 13.24291992 C61.89282227 13.90291992 61.89282227 14.56291992 61.89282227 15.24291992 C63.54282227 15.90291992 65.19282227 16.56291992 66.89282227 17.24291992 C66.89282227 17.90291992 66.89282227 18.56291992 66.89282227 19.24291992 C67.70106445 19.33379883 67.70106445 19.33379883 68.52563477 19.42651367 C71.92802731 20.59994608 74.19409789 22.8819772 76.76782227 25.30541992 C77.5630127 26.04489868 77.5630127 26.04489868 78.37426758 26.79931641 C82.33756092 30.55616284 86.16471548 34.46873305 88.89282227 39.24291992 C88.89282227 39.90291992 88.89282227 40.56291992 88.89282227 41.24291992 C89.55282227 41.24291992 90.21282227 41.24291992 90.89282227 41.24291992 C102.71944133 56.57232744 108.64480842 76.62193991 111.27954102 95.41088867 C111.47271405 99.01830424 111.47271405 99.01830424 112.89282227 100.24291992 C114.08956917 107.38992591 114.01800006 114.64550994 113.95532227 121.86791992 C113.95081055 122.87209961 113.94629883 123.8762793 113.94165039 124.91088867 C113.93001193 127.35496463 113.91366466 129.79890812 113.89282227 132.24291992 C106.64888252 133.37644577 99.51275941 133.38393518 92.19091797 133.37231445 C90.81496128 133.37367169 89.43900496 133.37545344 88.06304932 133.37762451 C84.34114822 133.38216602 80.61927499 133.38042133 76.89737344 133.37724543 C72.97676285 133.3746982 69.05615451 133.37706652 65.13554382 133.37863159 C58.53925148 133.38044921 51.94297033 133.37806059 45.34667969 133.37329102 C37.77498507 133.36787854 30.2033175 133.36959062 22.63162357 133.37511742 C16.09275692 133.37969552 9.5538983 133.38027552 3.01503056 133.37767875 C-0.872768 133.37613775 -4.76055397 133.37586056 -8.64835167 133.37921524 C-25.15812026 133.39157412 -41.62264779 133.27124699 -58.10717773 132.24291992 C-56.89697306 153.34643768 -53.95783023 172.07360483 -39.10717773 188.24291992 C-36.8477513 190.05310367 -34.51136709 191.62377199 -32.10717773 193.24291992 C-32.10717773 193.90291992 -32.10717773 194.56291992 -32.10717773 195.24291992 C-31.22030273 195.51104492 -30.33342773 195.77916992 -29.41967773 196.05541992 C-25.4877013 197.46499638 -22.31393644 199.44812367 -18.84155273 201.73510742 C-9.57003668 206.84768627 1.91775011 206.52418603 12.20532227 206.55541992 C13.30191162 206.56081787 14.39850098 206.56621582 15.52832031 206.57177734 C21.49394057 206.51988669 26.9698067 206.03912244 32.76074219 204.57177734 C35.11037212 204.20936448 36.64881152 204.51634546 38.89282227 205.24291992 C19.9517245 212.1417913 -2.63002608 211.83856783 -21.06030273 203.51245117 C-37.17307785 195.72981952 -48.85648649 183.09746239 -55.10717773 166.24291992 C-59.17084602 154.23038698 -60.10717773 143.89101586 -60.10717773 131.24291992 C-3.01717773 131.24291992 54.07282227 131.24291992 112.89282227 131.24291992 C112.02174135 114.48066909 112.02174135 114.48066909 109.64282227 98.05541992 C109.30686035 96.2524646 109.30686035 96.2524646 108.96411133 94.41308594 C103.3162273 65.08646791 90.38071611 37.27039842 65.40454102 19.46948242 C47.33775244 7.494679 28.76763025 3.46024246 7.39282227 2.68041992 C6.28422852 2.63723633 5.17563477 2.59405273 4.03344727 2.54956055 C1.3200072 2.44429779 -1.39351191 2.34216146 -4.10717773 2.24291992 C-2.10717773 0.24291992 -2.10717773 0.24291992 0 0 Z " fill="#4B4B4B" transform="translate(184.107177734375,188.757080078125)"/>
<path d="M0 0 C1.22195572 0.00280975 1.22195572 0.00280975 2.46859741 0.00567627 C4.18841655 0.01239391 5.90822048 0.02630278 7.62792969 0.046875 C10.27032551 0.07808824 12.91212543 0.08785142 15.5546875 0.09375 C17.22396566 0.10291757 18.89323772 0.11329256 20.5625 0.125 C21.35725739 0.12924988 22.15201477 0.13349976 22.97085571 0.13787842 C28.53127061 0.21095811 28.53127061 0.21095811 29.6484375 1.328125 C30.07147098 7.01719598 28.96805594 11.33789631 27.0234375 16.578125 C26.75128418 17.32392822 26.47913086 18.06973145 26.19873047 18.83813477 C21.46585447 31.46141065 14.47499802 42.06308223 4.6484375 51.328125 C4.0915625 51.92625 3.5346875 52.524375 2.9609375 53.140625 C1.6484375 54.328125 1.6484375 54.328125 -0.3515625 54.328125 C-0.53074219 54.89144531 -0.70992187 55.45476562 -0.89453125 56.03515625 C-3.08234271 59.47817322 -6.18379787 61.00178265 -9.6640625 63.015625 C-10.32857422 63.41845703 -10.99308594 63.82128906 -11.67773438 64.23632812 C-15.20829822 66.32114179 -18.20464467 67.85487906 -22.3515625 68.328125 C-22.3515625 68.988125 -22.3515625 69.648125 -22.3515625 70.328125 C-23.45564453 70.61816406 -23.45564453 70.61816406 -24.58203125 70.9140625 C-25.55785156 71.17445313 -26.53367187 71.43484375 -27.5390625 71.703125 C-28.50199219 71.95835937 -29.46492188 72.21359375 -30.45703125 72.4765625 C-33.30664412 73.26032677 -33.30664412 73.26032677 -35.78125 74.328125 C-59.25830206 83.46205407 -91.30306217 80.41311703 -114.3515625 71.328125 C-115.8365625 70.833125 -115.8365625 70.833125 -117.3515625 70.328125 C-117.3515625 69.668125 -117.3515625 69.008125 -117.3515625 68.328125 C-118.7128125 68.1425 -118.7128125 68.1425 -120.1015625 67.953125 C-122.94126573 67.40702823 -124.87746841 66.75548697 -127.3515625 65.328125 C-127.3515625 64.668125 -127.3515625 64.008125 -127.3515625 63.328125 C-127.93035156 63.20953125 -128.50914062 63.0909375 -129.10546875 62.96875 C-135.22463643 61.22345696 -140.13744834 56.93731236 -144.3515625 52.328125 C-144.0215625 51.668125 -143.6915625 51.008125 -143.3515625 50.328125 C-142.34802734 51.14603516 -142.34802734 51.14603516 -141.32421875 51.98046875 C-115.3793282 72.35330227 -85.02939063 78.40999632 -52.41748047 75.0234375 C-41.12217819 73.43728006 -30.66419936 70.16326844 -20.3515625 65.328125 C-19.24425781 64.81507813 -18.13695312 64.30203125 -16.99609375 63.7734375 C2.88428026 53.84512646 16.49479009 37.34847346 24 16.58984375 C25.49231529 11.8498639 26.67306572 7.20498392 27.6484375 2.328125 C15.7684375 2.658125 3.8884375 2.988125 -8.3515625 3.328125 C-9.3415625 6.298125 -10.3315625 9.268125 -11.3515625 12.328125 C-11.6815625 12.328125 -12.0115625 12.328125 -12.3515625 12.328125 C-12.26409966 10.88951206 -12.15590902 9.45214992 -12.0390625 8.015625 C-11.98105469 7.21511719 -11.92304688 6.41460937 -11.86328125 5.58984375 C-10.43333037 -0.73032081 -5.52657105 -0.08629658 0 0 Z " fill="#525252" transform="translate(264.3515625,354.671875)"/>
<path d="M0 0 C0 0.66 0 1.32 0 2 C-0.81791016 2.31130859 -0.81791016 2.31130859 -1.65234375 2.62890625 C-7.21711301 4.90237609 -11.55105645 7.74656591 -16.15234375 11.609375 C-18 13 -18 13 -20 13 C-20.25007813 13.55171875 -20.50015625 14.1034375 -20.7578125 14.671875 C-22.22392026 17.41967445 -23.99514785 19.7671764 -25.875 22.25 C-34.21757686 33.64951387 -37.46958324 45.08270781 -40 59 C2.9 59 45.8 59 90 59 C85.75895931 42.03583723 79.67595689 21.45063793 64 11 C64 10.34 64 9.68 64 9 C75.45203319 14.05540204 82.13785985 26.66604141 86.57421875 37.8125 C89.50189503 45.79798943 90.26506033 52.180724 91 61 C47.44 61 3.88 61 -41 61 C-41 48.18997571 -41 48.18997571 -38.875 42 C-38.6490918 41.31848877 -38.42318359 40.63697754 -38.19042969 39.93481445 C-32.38498547 23.08830483 -21.4951813 9.88541356 -5.82421875 1.25 C-3 0 -3 0 0 0 Z " fill="#424242" transform="translate(166,229)"/>
<path d="M0 0 C3.011617 2.83446305 5.7693051 5.78549789 8.375 9 C9.16003906 9.9590625 9.16003906 9.9590625 9.9609375 10.9375 C11.36741322 13.72930143 10.84215349 15.02466621 10 18 C8.71240234 20.15307617 8.71240234 20.15307617 7.0859375 22.29296875 C6.19720947 23.47753662 6.19720947 23.47753662 5.29052734 24.68603516 C4.34234131 25.92426025 4.34234131 25.92426025 3.375 27.1875 C2.0825638 28.90697394 0.79088726 30.62701915 -0.5 32.34765625 C-1.42232422 33.5699292 -1.42232422 33.5699292 -2.36328125 34.81689453 C-4.71401645 37.95237695 -6.9550694 41.15620312 -9.18359375 44.37890625 C-11.66248926 47.95597913 -14.17574508 51.50845222 -16.6875 55.0625 C-19.81459245 59.48760307 -22.94071649 63.91330539 -26.0546875 68.34765625 C-31.24751779 75.73606196 -36.49700824 83.07343441 -41.85791016 90.34082031 C-46.82828886 97.09484475 -51.64695221 103.95421358 -56.46630859 110.81640625 C-59.05720261 114.50519263 -61.65307422 118.19045865 -64.25 121.875 C-64.70882568 122.52774902 -65.16765137 123.18049805 -65.64038086 123.85302734 C-69.70058865 129.61501937 -73.85236381 135.29700024 -78 141 C-62.16 141 -46.32 141 -30 141 C-29.34 139.35 -28.68 137.7 -28 136 C-26.85810618 134.13791894 -25.6656989 132.3063208 -24.4375 130.5 C-23.38369141 128.94539063 -23.38369141 128.94539063 -22.30859375 127.359375 C-21.54002645 126.23892151 -20.77045622 125.11915546 -20 124 C-19.37955811 123.09797852 -19.37955811 123.09797852 -18.74658203 122.17773438 C-16.17515739 118.44428994 -13.59161757 114.71945114 -11 111 C-10 114 -10 114 -10.8125 116.125 C-12 118 -12 118 -14 119 C-14.97175805 120.65177881 -15.93733983 122.30767911 -16.86279297 123.98583984 C-18.7705962 127.36483869 -20.91763799 130.5807364 -23.0625 133.8125 C-23.49626953 134.47958984 -23.93003906 135.14667969 -24.37695312 135.83398438 C-26.4019107 138.88837244 -27.91652484 140.94434989 -31 143 C-33.18302917 143.24050903 -33.18302917 143.24050903 -35.74682617 143.22705078 C-36.70759567 143.22689972 -37.66836517 143.22674866 -38.6582489 143.22659302 C-39.69270645 143.21627045 -40.727164 143.20594788 -41.79296875 143.1953125 C-43.38471672 143.19106766 -43.38471672 143.19106766 -45.00862122 143.18673706 C-48.40169497 143.17553184 -51.79450587 143.15042647 -55.1875 143.125 C-57.48632432 143.11497065 -59.78515276 143.10584472 -62.08398438 143.09765625 C-67.72274611 143.07559141 -73.36135428 143.04211044 -79 143 C-79.59448242 141.16162109 -79.59448242 141.16162109 -80 139 C-78.48828125 136.4140625 -78.48828125 136.4140625 -76.3125 133.625 C-72.8152715 129.07557143 -72.8152715 129.07557143 -69.625 124.3125 C-68.820625 123.1678125 -68.820625 123.1678125 -68 122 C-67.34 122 -66.68 122 -66 122 C-65.731875 121.26652344 -65.46375 120.53304687 -65.1875 119.77734375 C-64.02542007 117.05945286 -62.72445922 114.95435811 -61 112.5625 C-60.38898438 111.70785156 -59.77796875 110.85320312 -59.1484375 109.97265625 C-58.43945312 108.99167969 -57.73046875 108.01070313 -57 107 C-55.65976708 105.1339365 -54.32145188 103.26651953 -52.984375 101.39819336 C-52.08786059 100.14632563 -51.18946312 98.89580401 -50.2890625 97.64672852 C-47.96393242 94.4355174 -47.96393242 94.4355174 -46 91 C-45.34 91 -44.68 91 -44 91 C-43.73960937 90.27425781 -43.47921875 89.54851562 -43.2109375 88.80078125 C-41.95916041 85.90554197 -40.50955483 83.71216733 -38.625 81.1875 C-37.57119141 79.76630859 -37.57119141 79.76630859 -36.49609375 78.31640625 C-35.66511683 77.21014474 -34.83299043 76.10474617 -34 75 C-33.50516113 74.34370605 -33.01032227 73.68741211 -32.50048828 73.01123047 C-31.97567871 72.31529785 -31.45086914 71.61936523 -30.91015625 70.90234375 C-30.3776123 70.19505127 -29.84506836 69.48775879 -29.29638672 68.7590332 C-28.24228697 67.36087146 -27.18541849 65.96479185 -26.12548828 64.57104492 C-23.53340084 61.14199123 -21.16423668 57.72075074 -19 54 C-17.85008119 52.28034869 -16.68318418 50.5719352 -15.5 48.875 C-14.61828125 47.60269531 -14.61828125 47.60269531 -13.71875 46.3046875 C-12 44 -12 44 -10.53125 42.6328125 C-8.62684491 40.60209482 -7.44197358 38.29690774 -6.10205078 35.87255859 C-4.30533742 32.81965839 -2.13222479 30.08634257 0.0625 27.3125 C0.92853375 26.20454301 1.79442274 25.09647285 2.66015625 23.98828125 C4.01459327 22.25849107 5.40258488 20.55202977 6.87109375 18.91796875 C8.22172309 17.01696893 8.22172309 17.01696893 7.91015625 14.5390625 C6.85482617 11.59500864 5.45952629 9.75241273 3.4375 7.375 C0 3.32193159 0 3.32193159 0 0 Z " fill="#2A2A2A" transform="translate(384,290)"/>
<path d="M0 0 C1.41112312 0.00022659 1.41112312 0.00022659 2.85075378 0.00045776 C3.86333755 0.01078033 4.87592133 0.02110291 5.91918945 0.03173828 C7.47764336 0.03598312 7.47764336 0.03598312 9.06758118 0.04031372 C12.38932767 0.05151797 15.71080556 0.07662314 19.0324707 0.10205078 C21.28311785 0.11208026 23.53376923 0.12120616 25.78442383 0.12939453 C31.30469793 0.15145808 36.82481513 0.18493807 42.3449707 0.22705078 C42.95361328 2.54736328 42.95361328 2.54736328 43.3449707 5.22705078 C41.99025277 7.46766292 40.7044796 9.25087567 39.0324707 11.22705078 C38.10245044 12.37912598 37.17277262 13.5314777 36.2434082 14.68408203 C35.52169434 15.56314209 35.52169434 15.56314209 34.78540039 16.45996094 C32.52202086 19.23662892 30.33876717 22.07324195 28.1574707 24.91455078 C27.74247314 25.45208984 27.32747559 25.98962891 26.89990234 26.54345703 C23.74007357 30.65543418 20.75094893 34.86737181 17.80981445 39.13720703 C16.09166265 41.58843694 14.24004514 43.91084869 12.3449707 46.22705078 C11.6849707 47.21705078 11.0249707 48.20705078 10.3449707 49.22705078 C9.6849707 49.22705078 9.0249707 49.22705078 8.3449707 49.22705078 C8.1284082 49.89865234 7.9118457 50.57025391 7.6887207 51.26220703 C5.91719807 55.17088633 3.46471481 58.28497456 0.8449707 61.66455078 C-3.76998662 67.69442513 -8.2500667 73.78905369 -12.53198242 80.06079102 C-13.52483929 81.48437255 -14.58386199 82.86141916 -15.6550293 84.22705078 C-16.3150293 84.22705078 -16.9750293 84.22705078 -17.6550293 84.22705078 C-17.8819043 84.90767578 -18.1087793 85.58830078 -18.3425293 86.28955078 C-19.96729076 89.92592168 -21.98306186 93.25534341 -24.6550293 96.22705078 C-25.3150293 96.22705078 -25.9750293 96.22705078 -26.6550293 96.22705078 C-27.3150293 97.87705078 -27.9750293 99.52705078 -28.6550293 101.22705078 C-29.3150293 101.22705078 -29.9750293 101.22705078 -30.6550293 101.22705078 C-25.55962347 90.04397588 -16.25457263 80.02280576 -8.82250977 70.32104492 C-4.36978961 64.50149889 0.01650323 58.63949767 4.3449707 52.72705078 C9.93878885 45.08683082 15.65688026 37.54922022 21.42358398 30.03881836 C26.56112532 23.32305751 31.52791782 16.49721977 36.36083984 9.55883789 C36.8583374 8.85509033 37.35583496 8.15134277 37.8684082 7.42626953 C38.30072754 6.80582764 38.73304688 6.18538574 39.1784668 5.54614258 C39.56341309 5.11084229 39.94835937 4.67554199 40.3449707 4.22705078 C41.0049707 4.22705078 41.6649707 4.22705078 42.3449707 4.22705078 C42.3449707 3.56705078 42.3449707 2.90705078 42.3449707 2.22705078 C35.88948985 1.91067109 29.44127067 1.74024681 22.97851562 1.66552734 C20.78689282 1.62363791 18.59561836 1.54974357 16.40625 1.44189453 C4.1186408 0.53551278 4.1186408 0.53551278 -6.90115356 4.95956421 C-10.84336921 9.18032331 -13.71122704 13.91982789 -16.41958618 18.99595642 C-18.25467567 22.30995588 -20.45652011 25.25215682 -22.7175293 28.28955078 C-23.51437038 29.39838531 -24.30894785 30.50885324 -25.1003418 31.62158203 C-25.50542969 32.19086426 -25.91051758 32.76014648 -26.32788086 33.34667969 C-27.8411113 35.49070119 -29.33843412 37.64538825 -30.8347168 39.80126953 C-31.37604248 40.57784912 -31.91736816 41.35442871 -32.47509766 42.15454102 C-33.53257969 43.67300541 -34.58567098 45.19453951 -35.63378906 46.71948242 C-36.35393188 47.75190063 -36.35393188 47.75190063 -37.08862305 48.80517578 C-37.72368774 49.72411621 -37.72368774 49.72411621 -38.37158203 50.66162109 C-39.6550293 52.22705078 -39.6550293 52.22705078 -42.6550293 54.22705078 C-42.04222841 50.41702788 -40.27416737 48.08431304 -37.9675293 45.03955078 C-34.74408706 40.7339116 -31.73818672 36.36527114 -28.8815918 31.80908203 C-28.47682617 31.28701172 -28.07206055 30.76494141 -27.6550293 30.22705078 C-26.9950293 30.22705078 -26.3350293 30.22705078 -25.6550293 30.22705078 C-25.27217773 28.88513672 -25.27217773 28.88513672 -24.8815918 27.51611328 C-23.63914974 24.1844693 -22.33378802 22.27294236 -20.0300293 19.60205078 C-16.07920549 14.86681933 -12.72160985 9.89777392 -9.41674805 4.69580078 C-6.6644656 0.83894378 -4.55766775 -0.0244379 0 0 Z " fill="#252525" transform="translate(484.655029296875,188.77294921875)"/>
<path d="M0 0 C0.33 0.66 0.66 1.32 1 2 C0.55527344 2.51949219 0.11054688 3.03898437 -0.34765625 3.57421875 C-0.91355469 4.27160156 -1.47945313 4.96898437 -2.0625 5.6875 C-2.63097656 6.37199219 -3.19945312 7.05648438 -3.78515625 7.76171875 C-5.1977395 9.92980098 -5.1977395 9.92980098 -4.96875 12.41796875 C-3.70565626 15.78452102 -1.8083757 17.93132901 0.5625 20.625 C5 25.67862715 5 25.67862715 5 29 C5.99 29.33 6.98 29.66 8 30 C9.06036586 31.62892665 10.05200708 33.30321268 11 35 C12.83233247 37.6170573 14.70048901 40.2054372 16.57421875 42.79296875 C18 45 18 45 18 47 C18.66 47 19.32 47 20 47 C21.26513672 48.46533203 21.26513672 48.46533203 22.6796875 50.5078125 C23.45505859 51.61769531 23.45505859 51.61769531 24.24609375 52.75 C24.78363281 53.53375 25.32117188 54.3175 25.875 55.125 C26.40480469 55.88554687 26.93460937 56.64609375 27.48046875 57.4296875 C28.99737813 59.61283252 30.49958463 61.80550093 32 64 C32.42055664 64.60166992 32.84111328 65.20333984 33.27441406 65.82324219 C36 69.77354075 36 69.77354075 36 72 C36.99 72.33 37.98 72.66 39 73 C40.06036586 74.62892665 41.05200708 76.30321268 42 78 C43.83233247 80.6170573 45.70048901 83.2054372 47.57421875 85.79296875 C49 88 49 88 49 90 C49.66 90 50.32 90 51 90 C52.47265625 91.828125 52.47265625 91.828125 54.0625 94.25 C54.85333984 95.43335938 54.85333984 95.43335938 55.66015625 96.640625 C57 99 57 99 57.49609375 101.234375 C57.74552734 102.10835937 57.74552734 102.10835937 58 103 C59.485 103.495 59.485 103.495 61 104 C61.6875 106.0625 61.6875 106.0625 62 108 C62.66 108 63.32 108 64 108 C65.47265625 109.828125 65.47265625 109.828125 67.0625 112.25 C67.58972656 113.03890625 68.11695313 113.8278125 68.66015625 114.640625 C70 117 70 117 70.49609375 119.234375 C70.74552734 120.10835937 70.74552734 120.10835937 71 121 C72.485 121.495 72.485 121.495 74 122 C74.92497306 123.30181393 75.83720442 124.61452706 76.68359375 125.96875 C78.43995473 128.67886191 80.3448704 131.26762687 82.25 133.875 C82.95640625 134.84179688 83.6628125 135.80859375 84.390625 136.8046875 C85.18726563 137.89136719 85.18726563 137.89136719 86 139 C85.34 140.32 84.68 141.64 84 143 C67.17 143 50.34 143 33 143 C33 142.34 33 141.68 33 141 C49.5 140.67 66 140.34 83 140 C78.71 134.06 74.42 128.12 70 122 C64 113.5 64 113.5 61.02734375 109.27734375 C55.75146591 101.80389884 50.36823268 94.40720533 45 87 C38.11674383 77.50233199 31.26615918 67.98567967 24.51708984 58.39208984 C19.30462829 50.99282043 13.99968761 43.66129411 8.68945312 36.33203125 C5.72789201 32.24404978 2.76991867 28.15347878 -0.1875 24.0625 C-0.74042725 23.29881104 -1.29335449 22.53512207 -1.86303711 21.74829102 C-2.37616455 21.03858154 -2.88929199 20.32887207 -3.41796875 19.59765625 C-3.86938232 18.97383057 -4.3207959 18.35000488 -4.78588867 17.70727539 C-8.01357897 13.16851846 -8.01357897 13.16851846 -7.84765625 11.109375 C-6.76915742 8.42555302 -5.25437285 6.49631553 -3.4375 4.25 C-2.79683594 3.45078125 -2.15617187 2.6515625 -1.49609375 1.828125 C-1.00238281 1.22484375 -0.50867188 0.6215625 0 0 Z " fill="#333333" transform="translate(453,290)"/>
<path d="M0 0 C0.90789276 -0.00637985 1.81578552 -0.0127597 2.75119019 -0.01933289 C4.22617477 -0.02100212 4.22617477 -0.02100212 5.73095703 -0.02270508 C6.73965851 -0.02603348 7.74835999 -0.02936188 8.78762817 -0.03279114 C10.92449486 -0.03786038 13.06136949 -0.04019946 15.19824219 -0.04003906 C18.4683946 -0.04222272 21.73820823 -0.06037079 25.00830078 -0.0793457 C27.08251838 -0.08228017 29.15673757 -0.08426461 31.23095703 -0.08520508 C32.69986893 -0.09598335 32.69986893 -0.09598335 34.19845581 -0.10697937 C35.11265289 -0.10390274 36.02684998 -0.10082611 36.96875 -0.09765625 C37.7710202 -0.09908127 38.57329041 -0.10050629 39.39987183 -0.10197449 C41.61376953 0.14526367 41.61376953 0.14526367 45.61376953 2.14526367 C29.11376953 2.14526367 12.61376953 2.14526367 -4.38623047 2.14526367 C4.94602638 15.41317793 4.94602638 15.41317793 14.48876953 28.52026367 C15.67238067 30.12051123 16.85597389 31.72077204 18.03955078 33.32104492 C18.62945801 34.11720215 19.21936523 34.91335937 19.82714844 35.73364258 C22.78154692 39.7215557 25.73003985 43.71381279 28.67626953 47.70776367 C29.25473633 48.49175537 29.83320313 49.27574707 30.42919922 50.08349609 C34.40069871 55.47505696 38.32871281 60.89653108 42.23876953 66.33276367 C47.36102734 73.45237497 52.57818325 80.49481146 57.85986328 87.49682617 C58.30313965 88.08625 58.74641602 88.67567383 59.203125 89.28295898 C60.2252122 90.63229805 61.25672717 91.97451273 62.29394531 93.31225586 C62.84421387 94.02800781 63.39448242 94.74375977 63.96142578 95.48120117 C64.46810791 96.1339502 64.97479004 96.78669922 65.49682617 97.45922852 C66.61376953 99.14526367 66.61376953 99.14526367 66.61376953 101.14526367 C65.12876953 100.65026367 65.12876953 100.65026367 63.61376953 100.14526367 C63.2804362 98.81193034 62.94710286 97.47859701 62.61376953 96.14526367 C61.12876953 95.65026367 61.12876953 95.65026367 59.61376953 95.14526367 C58.00830078 93.14916992 58.00830078 93.14916992 56.42626953 90.70776367 C55.89646484 89.90467773 55.36666016 89.1015918 54.82080078 88.27416992 C53.61376953 86.14526367 53.61376953 86.14526367 53.61376953 84.14526367 C52.95376953 84.14526367 52.29376953 84.14526367 51.61376953 84.14526367 C50.68422487 82.80258805 49.76562167 81.45121575 48.89892578 80.06713867 C46.81242435 76.94689945 44.38659318 74.09371932 42.00439453 71.19604492 C40.61376953 69.14526367 40.61376953 69.14526367 40.61376953 66.14526367 C39.62376953 65.81526367 38.63376953 65.48526367 37.61376953 65.14526367 C36.67749722 63.82754708 35.75526012 62.49820324 34.89501953 61.12963867 C29.97862085 53.51521633 24.28888549 46.36238503 18.84033203 39.12573242 C16.03185105 35.36630963 13.28677985 31.56282405 10.53955078 27.75854492 C8.09719038 24.44426681 5.54669628 21.22387905 2.96142578 18.02026367 C1.61376953 16.14526367 1.61376953 16.14526367 0.61376953 13.14526367 C-1.03166827 11.45763516 -2.69911624 9.79122878 -4.38623047 8.14526367 C-6.38623047 5.14526367 -6.38623047 5.14526367 -6.38623047 1.14526367 C-4.03526517 -0.03021898 -2.62060885 0.01247595 0 0 Z " fill="#303030" transform="translate(317.38623046875,188.854736328125)"/>
<path d="M0 0 C1.32203303 3.37950165 0.7220871 6.10178526 0.01977539 9.58081055 C-6.96334388 44.61571273 -1.2163279 85.49459826 18 116 C21.16430182 120.46408957 24.57320028 124.73629209 28 129 C28.76054688 129.95132813 29.52109375 130.90265625 30.3046875 131.8828125 C30.86414063 132.58148438 31.42359375 133.28015625 32 134 C28.18063472 132.44396229 25.73955562 130.04395069 23 127 C23 126.34 23 125.68 23 125 C22.34 125 21.68 125 21 125 C20.03322564 123.65342143 19.08132549 122.29412569 18.19921875 120.890625 C17.35970972 119.56709937 16.4838296 118.26627017 15.58203125 116.984375 C8.19770745 106.42991734 2.9349045 93.9278723 0.4921875 81.265625 C-0.00519782 78.82214612 -0.00519782 78.82214612 -0.98828125 75.7890625 C-2.11776143 71.55896299 -2.63173297 67.47012829 -3.0625 63.125 C-3.13974107 58.16365465 -3.13974107 58.16365465 -5 54 C-5.1007812 51.63601532 -5.13973215 49.30188689 -5.1328125 46.9375 C-5.13376923 46.23101318 -5.13472595 45.52452637 -5.13571167 44.79663086 C-5.13639333 43.30029207 -5.13454005 41.80395033 -5.13037109 40.30761719 C-5.12502257 38.00969843 -5.13031651 35.71197514 -5.13671875 33.4140625 C-5.13605797 31.96354123 -5.1347768 30.51302009 -5.1328125 29.0625 C-5.13483673 28.3708374 -5.13686096 27.6791748 -5.13894653 26.96655273 C-5.11495224 22.11495224 -5.11495224 22.11495224 -4 21 C-3.71614087 19.52868827 -3.48618938 18.04686318 -3.28125 16.5625 C-3.15363281 15.66789062 -3.02601562 14.77328125 -2.89453125 13.8515625 C-2.69923828 12.44003906 -2.69923828 12.44003906 -2.5 11 C-2.24339117 9.14530251 -1.98316847 7.29110021 -1.71875 5.4375 C-1.54762695 4.19806641 -1.54762695 4.19806641 -1.37304688 2.93359375 C-1 1 -1 1 0 0 Z " fill="#525252" transform="translate(88,271)"/>
<path d="M0 0 C3.48401567 1.16133856 3.79790568 1.80755774 5.6875 4.8125 C6.2134375 5.63234375 6.739375 6.4521875 7.28125 7.296875 C7.8484375 8.18890625 8.415625 9.0809375 9 10 C17.17531996 22.40640661 25.4788205 34.74163351 34.34375 46.66796875 C36.03261656 49.04592473 37.52622254 51.48419961 39 54 C39.556875 54.886875 40.11375 55.77375 40.6875 56.6875 C42 59 42 59 42 61 C42.99 61.33 43.98 61.66 45 62 C45.95194367 63.56390746 46.89101026 65.13734468 47.7578125 66.75 C49.28740827 69.52058857 50.94270111 72.19449056 52.625 74.875 C53.21539062 75.82117188 53.80578125 76.76734375 54.4140625 77.7421875 C55.80290229 80.0993073 55.80290229 80.0993073 58 81 C58.25007813 80.46117187 58.50015625 79.92234375 58.7578125 79.3671875 C60.27520192 76.47555861 62.04934415 73.83248208 63.875 71.125 C64.55304688 70.11695313 65.23109375 69.10890625 65.9296875 68.0703125 C66.61289062 67.05710937 67.29609375 66.04390625 68 65 C68.70382812 63.88367188 69.40765625 62.76734375 70.1328125 61.6171875 C70.74898438 60.75351563 71.36515625 59.88984375 72 59 C72.66 59 73.32 59 74 59 C74.309375 58.21625 74.61875 57.4325 74.9375 56.625 C76 54 76 54 77 52 C77.66 52 78.32 52 79 52 C77.34911628 57.29129397 74.01087031 61.35840284 70.75 65.75 C69.6181039 67.2852154 68.48789147 68.82167358 67.359375 70.359375 C66.80314453 71.11541016 66.24691406 71.87144531 65.67382812 72.65039062 C63.42194552 75.8114347 61.33619278 79.0713444 59.27050781 82.35644531 C58.64160645 83.17000488 58.64160645 83.17000488 58 84 C57.34 84 56.68 84 56 84 C54.84594727 82.6015625 54.84594727 82.6015625 53.56640625 80.625 C53.08824463 79.89547119 52.61008301 79.16594238 52.11743164 78.41430664 C51.6043042 77.61758545 51.09117676 76.82086426 50.5625 76 C49.46975065 74.33137552 48.37598112 72.66341873 47.28125 70.99609375 C46.72953125 70.15288574 46.1778125 69.30967773 45.609375 68.44091797 C43.30698432 64.94891221 40.94184444 61.50235224 38.5625 58.0625 C37.65487933 56.74744317 36.7473284 55.4323382 35.83984375 54.1171875 C35.3794873 53.45041992 34.91913086 52.78365234 34.44482422 52.09667969 C31.82864787 48.30017369 29.2273863 44.4934657 26.625 40.6875 C26.08544678 39.89875488 25.54589355 39.11000977 24.98999023 38.29736328 C22.1689888 34.17317046 19.3495134 30.04793929 16.53125 25.921875 C15.96414307 25.09204102 15.39703613 24.26220703 14.81274414 23.40722656 C13.70205288 21.78191877 12.5918507 20.15627663 11.48217773 18.53027344 C8.07520621 13.54538603 4.62112432 8.60150057 1.07421875 3.71484375 C0 2 0 2 0 0 Z " fill="#494949" transform="translate(363,191)"/>
<path d="M0 0 C11.45203319 5.05540204 18.13785985 17.66604141 22.57421875 28.8125 C25.50189503 36.79798943 26.26506033 43.180724 27 52 C-16.56 52 -60.12 52 -105 52 C-105 51.67 -105 51.34 -105 51 C-61.77 51 -18.54 51 26 51 C22.54845517 35.07856957 22.54845517 35.07856957 16 21 C15.53722656 20.23816406 15.07445312 19.47632813 14.59765625 18.69140625 C10.63687795 12.46132261 6.19515265 6.13010177 0 2 C0 1.34 0 0.68 0 0 Z " fill="#BDBDBD" transform="translate(230,238)"/>
<path d="M0 0 C0.58129883 1.86743164 0.58129883 1.86743164 1 4 C-0.30078125 6.12109375 -0.30078125 6.12109375 -2.3125 8.4375 C-3.04984375 9.31277344 -3.7871875 10.18804687 -4.546875 11.08984375 C-5.35640625 12.05019531 -6.1659375 13.01054687 -7 14 C-8.71200317 16.14801645 -10.39041783 18.32081882 -12.0625 20.5 C-12.48523193 21.04906006 -12.90796387 21.59812012 -13.34350586 22.16381836 C-16.53231571 26.32981428 -19.55967332 30.59045515 -22.53515625 34.91015625 C-24.25330806 37.36138616 -26.10492556 39.68379791 -28 42 C-28.66 42.99 -29.32 43.98 -30 45 C-30.66 45 -31.32 45 -32 45 C-32.2165625 45.67160156 -32.433125 46.34320313 -32.65625 47.03515625 C-34.42777263 50.94383554 -36.8802559 54.05792378 -39.5 57.4375 C-44.11495732 63.46737435 -48.5950374 69.56200291 -52.87695312 75.83374023 C-53.86980999 77.25732177 -54.92883269 78.63436837 -56 80 C-56.66 80 -57.32 80 -58 80 C-58.226875 80.680625 -58.45375 81.36125 -58.6875 82.0625 C-60.31226146 85.6988709 -62.32803257 89.02829263 -65 92 C-65.66 92 -66.32 92 -67 92 C-67.66 93.65 -68.32 95.3 -69 97 C-69.66 97 -70.32 97 -71 97 C-65.90459417 85.8169251 -56.59954333 75.79575498 -49.16748047 66.09399414 C-44.71476031 60.27444811 -40.32846747 54.41244689 -36 48.5 C-31.05818903 41.75031279 -26.02625982 35.07704481 -20.9375 28.4375 C-13.77417349 19.08779411 -6.83797244 9.58955382 0 0 Z " fill="#464646" transform="translate(525,193)"/>
<path d="M0 0 C0.33 0.66 0.66 1.32 1 2 C0.55527344 2.51949219 0.11054688 3.03898437 -0.34765625 3.57421875 C-0.91355469 4.27160156 -1.47945313 4.96898437 -2.0625 5.6875 C-2.63097656 6.37199219 -3.19945312 7.05648438 -3.78515625 7.76171875 C-5.1977395 9.92980098 -5.1977395 9.92980098 -4.96875 12.41796875 C-3.70565626 15.78452102 -1.8083757 17.93132901 0.5625 20.625 C5 25.67862715 5 25.67862715 5 29 C5.99 29.33 6.98 29.66 8 30 C9.06036586 31.62892665 10.05200708 33.30321268 11 35 C12.83233247 37.6170573 14.70048901 40.2054372 16.57421875 42.79296875 C18 45 18 45 18 47 C18.66 47 19.32 47 20 47 C21.26513672 48.46533203 21.26513672 48.46533203 22.6796875 50.5078125 C23.45505859 51.61769531 23.45505859 51.61769531 24.24609375 52.75 C24.78363281 53.53375 25.32117188 54.3175 25.875 55.125 C26.40480469 55.88554687 26.93460937 56.64609375 27.48046875 57.4296875 C28.99737813 59.61283252 30.49958463 61.80550093 32 64 C32.42055664 64.60166992 32.84111328 65.20333984 33.27441406 65.82324219 C36 69.77354075 36 69.77354075 36 72 C36.99 72.33 37.98 72.66 39 73 C40.06036586 74.62892665 41.05200708 76.30321268 42 78 C43.83233247 80.6170573 45.70048901 83.2054372 47.57421875 85.79296875 C49 88 49 88 49 90 C49.66 90 50.32 90 51 90 C52.0625 91.8125 52.0625 91.8125 53 94 C52.505 95.485 52.505 95.485 52 97 C50.92685547 95.47246094 50.92685547 95.47246094 49.83203125 93.9140625 C44.43393924 86.24231761 39.00440602 78.59589735 33.5 71 C29.29312394 65.19434834 25.12396157 59.36484207 21 53.5 C16.83251881 47.57412574 12.62085564 41.68246704 8.375 35.8125 C7.8372998 35.06597168 7.29959961 34.31944336 6.74560547 33.55029297 C4.16773205 29.97483665 1.5711282 26.41749247 -1.078125 22.89453125 C-1.55169434 22.25604248 -2.02526367 21.61755371 -2.51318359 20.9597168 C-3.39637767 19.76982732 -4.28941167 18.58715472 -5.19384766 17.41333008 C-8.00557962 13.59590372 -8.00557962 13.59590372 -7.98046875 10.9140625 C-6.71550482 8.44461101 -5.18225708 6.40715421 -3.4375 4.25 C-2.79683594 3.45078125 -2.15617187 2.6515625 -1.49609375 1.828125 C-1.00238281 1.22484375 -0.50867188 0.6215625 0 0 Z " fill="#3E3E3E" transform="translate(453,290)"/>
<path d="M0 0 C1.74415198 2.61622796 2.45897171 4.20310562 3.3125 7.125 C7.07682421 18.69889233 13.93654275 28.22256961 24 35 C24 35.66 24 36.32 24 37 C24.886875 37.268125 25.77375 37.53625 26.6875 37.8125 C30.61947643 39.22207646 33.7932413 41.20520375 37.265625 43.4921875 C46.53714105 48.60476635 58.02492785 48.28126611 68.3125 48.3125 C69.40908936 48.31789795 70.50567871 48.3232959 71.63549805 48.32885742 C77.60111831 48.27696677 83.07698443 47.79620252 88.86791992 46.32885742 C91.21754985 45.96644456 92.75598925 46.27342554 95 47 C76.05890224 53.89887138 53.47715166 53.59564791 35.046875 45.26953125 C19.77481269 37.8929723 8.60408147 26.25525404 1.8984375 10.59375 C0.65925398 7.01628105 0.2135642 3.77296755 0 0 Z " fill="#414141" transform="translate(128,347)"/>
<path d="M0 0 C3.47877872 2.0046154 6.59507367 4.21078235 9.75 6.6875 C31.01270219 22.22672919 55.81129483 25.39050462 81.4375 25.125 C83.1516874 25.1149366 84.86588061 25.10581676 86.58007812 25.09765625 C90.72019945 25.07593996 94.86003272 25.04160128 99 25 C99 25.33 99 25.66 99 26 C90.88843887 28.04346909 83.02842295 28.38510054 74.6875 28.375 C73.37185059 28.37411377 72.05620117 28.37322754 70.70068359 28.37231445 C56.52635677 28.25237386 43.19225995 26.19997288 30 21 C29.01 20.67 28.02 20.34 27 20 C27 19.34 27 18.68 27 18 C26.0925 17.87625 25.185 17.7525 24.25 17.625 C21.41029677 17.07890323 19.47409409 16.42736197 17 15 C17 14.34 17 13.68 17 13 C16.13181641 12.82210938 16.13181641 12.82210938 15.24609375 12.640625 C9.21477688 10.92038854 4.04486658 6.67687699 0 2 C0 1.34 0 0.68 0 0 Z " fill="#313131" transform="translate(120,405)"/>
<path d="M0 0 C-1 2 -1 2 -3.046875 2.82421875 C-4.38492188 3.25154297 -4.38492188 3.25154297 -5.75 3.6875 C-30.93624482 12.59205623 -50.4049028 32.02530595 -61.98339844 55.84057617 C-65.05077615 62.40956881 -67.69871589 69.12473505 -70 76 C-70.33 76 -70.66 76 -71 76 C-70.48334032 70.14016367 -69.24718923 65.39106117 -66.9375 60 C-66.51500977 58.98099609 -66.51500977 58.98099609 -66.08398438 57.94140625 C-65.39808689 56.29060213 -64.70030171 54.64474531 -64 53 C-63.34 53 -62.68 53 -62 53 C-61.93683594 52.33613281 -61.87367187 51.67226562 -61.80859375 50.98828125 C-60.68230535 46.82591108 -58.47544344 43.72400195 -56.0625 40.1875 C-55.60681641 39.49462891 -55.15113281 38.80175781 -54.68164062 38.08789062 C-53.51293645 36.35109013 -52.26241962 34.66992279 -51 33 C-50.34 33 -49.68 33 -49 33 C-48.773125 32.46375 -48.54625 31.9275 -48.3125 31.375 C-45.09462049 25.55217042 -40.55469363 21.55516103 -35.3125 17.625 C-34.73177734 17.17511719 -34.15105469 16.72523438 -33.55273438 16.26171875 C-29.26491261 13 -29.26491261 13 -27 13 C-27 12.34 -27 11.68 -27 11 C-25.02 10.34 -23.04 9.68 -21 9 C-21 8.34 -21 7.68 -21 7 C-18.8967433 6.01888025 -16.79236311 5.04016866 -14.6875 4.0625 C-13.51574219 3.51722656 -12.34398437 2.97195312 -11.13671875 2.41015625 C-7.15019591 0.61795856 -4.33861836 -0.11725996 0 0 Z " fill="#424242" transform="translate(160,195)"/>
<path d="M0 0 C4.43414586 4.08152787 7.61354868 8.59495289 10.91015625 13.62109375 C11.47115524 14.46603897 12.03215424 15.31098419 12.6101532 16.18153381 C14.43315398 18.92989134 16.24796058 21.68355032 18.0625 24.4375 C19.31555132 26.3310796 20.56913561 28.22430663 21.82324219 30.1171875 C23.72008869 32.98065473 25.61635412 35.84449303 27.51022339 38.70993042 C31.41418643 44.61565859 35.34110232 50.50513801 39.29296875 56.37890625 C40.23238085 57.77739802 41.171754 59.17591596 42.11108398 60.57446289 C43.4220015 62.52593794 44.73413492 64.47652644 46.05056763 66.42428589 C47.24095525 68.18638062 48.42577755 69.9520902 49.609375 71.71875 C50.26905273 72.69779297 50.92873047 73.67683594 51.60839844 74.68554688 C53 77 53 77 53 79 C49.39584951 77.7986165 48.85293989 76.73856012 46.8125 73.625 C46.01779297 72.43777344 46.01779297 72.43777344 45.20703125 71.2265625 C44 69 44 69 44 66 C43.34 66 42.68 66 42 66 C40.51184393 63.92385558 39.15024004 61.85814081 37.8125 59.6875 C37.00785654 58.40492028 36.20316846 57.12236856 35.3984375 55.83984375 C34.79660645 54.87280518 34.79660645 54.87280518 34.18261719 53.88623047 C31.91030711 50.26198033 29.55204496 46.69202357 27.21484375 43.109375 C26 41 26 41 26 39 C25.34 39 24.68 39 24 39 C22.52734375 37.13671875 22.52734375 37.13671875 20.9375 34.6875 C20.41027344 33.88699219 19.88304687 33.08648437 19.33984375 32.26171875 C18 30 18 30 17 27 C16.34 26.67 15.68 26.34 15 26 C14.27306096 24.02111039 13.60183749 22.02045442 13 20 C12.34 20 11.68 20 11 20 C9.59817001 17.94041114 8.31559268 15.89750195 7.0625 13.75 C4.35013338 9.12823283 4.35013338 9.12823283 1.24609375 4.765625 C0 3 0 3 0 0 Z " fill="#494949" transform="translate(433,352)"/>
<path d="M0 0 C3.011617 2.83446305 5.7693051 5.78549789 8.375 9 C9.16003906 9.9590625 9.16003906 9.9590625 9.9609375 10.9375 C11.36741322 13.72930143 10.84215349 15.02466621 10 18 C8.71240234 20.15307617 8.71240234 20.15307617 7.0859375 22.29296875 C6.19720947 23.47753662 6.19720947 23.47753662 5.29052734 24.68603516 C4.34234131 25.92426025 4.34234131 25.92426025 3.375 27.1875 C2.0825638 28.90697394 0.79088726 30.62701915 -0.5 32.34765625 C-1.42232422 33.5699292 -1.42232422 33.5699292 -2.36328125 34.81689453 C-4.71401645 37.95237695 -6.9550694 41.15620312 -9.18359375 44.37890625 C-12.1692078 48.68717942 -15.20176063 52.96236952 -18.22900391 57.24145508 C-20.93202065 61.06390727 -23.62530461 64.89258375 -26.30078125 68.734375 C-26.83678955 69.50128662 -27.37279785 70.26819824 -27.92504883 71.05834961 C-28.95024679 72.52566519 -29.97238444 73.9951253 -30.9909668 75.46704102 C-33.43246839 78.95387761 -35.84508826 82.10551729 -39 85 C-38.39371402 80.96135304 -36.19110223 78.05751009 -33.875 74.8125 C-33.47265137 74.23951172 -33.07030273 73.66652344 -32.65576172 73.07617188 C-29.73493809 68.94748885 -26.68815197 64.93317346 -23.5078125 61 C-21.81758502 58.75804024 -20.43122593 56.41473503 -19 54 C-17.85008119 52.28034869 -16.68318418 50.5719352 -15.5 48.875 C-14.61828125 47.60269531 -14.61828125 47.60269531 -13.71875 46.3046875 C-12 44 -12 44 -10.53125 42.6328125 C-8.62684491 40.60209482 -7.44197358 38.29690774 -6.10205078 35.87255859 C-4.30533742 32.81965839 -2.13222479 30.08634257 0.0625 27.3125 C0.92853375 26.20454301 1.79442274 25.09647285 2.66015625 23.98828125 C4.01459327 22.25849107 5.40258488 20.55202977 6.87109375 18.91796875 C8.22172309 17.01696893 8.22172309 17.01696893 7.91015625 14.5390625 C6.85482617 11.59500864 5.45952629 9.75241273 3.4375 7.375 C0 3.32193159 0 3.32193159 0 0 Z " fill="#424242" transform="translate(384,290)"/>
<path d="M0 0 C0 0.66 0 1.32 0 2 C-0.81791016 2.31130859 -0.81791016 2.31130859 -1.65234375 2.62890625 C-7.21711301 4.90237609 -11.55105645 7.74656591 -16.15234375 11.609375 C-18 13 -18 13 -20 13 C-20.25007813 13.55171875 -20.50015625 14.1034375 -20.7578125 14.671875 C-22.22392026 17.41967445 -23.99514785 19.7671764 -25.875 22.25 C-32.88192395 31.82444302 -37.26472623 42.18611597 -39 54 C-39.66 54 -40.32 54 -41 54 C-40.08168951 38.69482516 -32.21445377 22.45842318 -21 12 C-6.40327869 0 -6.40327869 0 0 0 Z " fill="#525252" transform="translate(166,229)"/>
<path d="M0 0 C0.33 0.66 0.66 1.32 1 2 C0.55527344 2.51949219 0.11054688 3.03898437 -0.34765625 3.57421875 C-0.91355469 4.27160156 -1.47945313 4.96898437 -2.0625 5.6875 C-2.63097656 6.37199219 -3.19945312 7.05648438 -3.78515625 7.76171875 C-5.1977395 9.92980098 -5.1977395 9.92980098 -4.96875 12.41796875 C-3.70565626 15.78452102 -1.8083757 17.93132901 0.5625 20.625 C5 25.67862715 5 25.67862715 5 29 C5.99 29.33 6.98 29.66 8 30 C9.0597649 31.62931769 10.05179177 33.30333299 11 35 C12.80059633 37.55150004 14.63472134 40.07581044 16.4765625 42.59765625 C17.88450108 44.81786709 18.56157466 46.43461928 19 49 C14.78923013 45.06534618 11.57152854 40.80256465 8.3125 36.0625 C7.26386239 34.54889578 6.21436845 33.03588452 5.1640625 31.5234375 C4.63973633 30.76772461 4.11541016 30.01201172 3.57519531 29.23339844 C2.07040239 27.09982037 0.52754593 25.00253265 -1.0390625 22.9140625 C-1.50739502 22.28363037 -1.97572754 21.65319824 -2.45825195 21.00366211 C-3.34280274 19.81740408 -4.23682319 18.63813282 -5.14135742 17.46704102 C-8.00442535 13.59189003 -8.00442535 13.59189003 -7.984375 10.91015625 C-6.71434641 8.44569601 -5.18096803 6.40556047 -3.4375 4.25 C-2.79683594 3.45078125 -2.15617187 2.6515625 -1.49609375 1.828125 C-1.00238281 1.22484375 -0.50867188 0.6215625 0 0 Z " fill="#414141" transform="translate(453,290)"/>
<path d="M0 0 C1.55505424 4.02240698 0.42759915 7.67908021 -0.375 11.75 C-2.9443684 25.99383644 -2.75807663 40.56880337 -3 55 C-3.66 54.67 -4.32 54.34 -5 54 C-5.02465392 49.46102295 -5.04283789 44.92208457 -5.05493164 40.38305664 C-5.0599714 38.83780234 -5.0668032 37.29255284 -5.07543945 35.74731445 C-5.08752076 33.53074971 -5.09323173 31.31424782 -5.09765625 29.09765625 C-5.10281754 28.4028566 -5.10797882 27.70805695 -5.11329651 26.99220276 C-5.11349277 25.3277067 -5.06189129 23.66334501 -5 22 C-4.67 21.67 -4.34 21.34 -4 21 C-3.71614087 19.52868827 -3.48618938 18.04686318 -3.28125 16.5625 C-3.15363281 15.66789062 -3.02601562 14.77328125 -2.89453125 13.8515625 C-2.69923828 12.44003906 -2.69923828 12.44003906 -2.5 11 C-2.24339117 9.14530251 -1.98316847 7.29110021 -1.71875 5.4375 C-1.54762695 4.19806641 -1.54762695 4.19806641 -1.37304688 2.93359375 C-1 1 -1 1 0 0 Z " fill="#404040" transform="translate(88,271)"/>
<path d="M0 0 C3.47877872 2.0046154 6.59507367 4.21078235 9.75 6.6875 C19.01440477 13.48223259 29.99092967 18.77151569 41.21484375 21.33203125 C43 22 43 22 45 25 C39.57264332 24.43465035 35.0489822 23.01959288 30 21 C29.01 20.67 28.02 20.34 27 20 C27 19.34 27 18.68 27 18 C26.0925 17.87625 25.185 17.7525 24.25 17.625 C21.41029677 17.07890323 19.47409409 16.42736197 17 15 C17 14.34 17 13.68 17 13 C16.13181641 12.82210938 16.13181641 12.82210938 15.24609375 12.640625 C9.21477688 10.92038854 4.04486658 6.67687699 0 2 C0 1.34 0 0.68 0 0 Z " fill="#414141" transform="translate(120,405)"/>
<path d="M0 0 C0.66 0.66 1.32 1.32 2 2 C-1.98733912 7.67567191 -5.98867993 13.34125245 -10 19 C-10.58201172 19.82209961 -11.16402344 20.64419922 -11.76367188 21.49121094 C-13.48284807 23.91473189 -15.20912921 26.3330303 -16.9375 28.75 C-17.46819092 29.49942871 -17.99888184 30.24885742 -18.5456543 31.02099609 C-21.43600815 35.04692771 -24.37900568 38.6124031 -28 42 C-27.38719911 38.1899771 -25.61913808 35.85726226 -23.3125 32.8125 C-20.08905777 28.50686082 -17.08315742 24.13822036 -14.2265625 19.58203125 C-13.82179688 19.05996094 -13.41703125 18.53789062 -13 18 C-12.34 18 -11.68 18 -11 18 C-10.75378906 17.11828125 -10.50757813 16.2365625 -10.25390625 15.328125 C-8.92611151 11.80388475 -7.35706486 9.61307856 -4.9375 6.75 C-2.18604407 3.55991368 -2.18604407 3.55991368 0 0 Z " fill="#424242" transform="translate(470,201)"/>
<path d="M0 0 C0.33 0.99 0.66 1.98 1 3 C-0.625 5.56640625 -0.625 5.56640625 -3 8.5625 C-3.8362496 9.63024817 -4.67086137 10.69928092 -5.50390625 11.76953125 C-6.13449951 12.57511475 -6.13449951 12.57511475 -6.77783203 13.39697266 C-9.19757606 16.57077195 -11.38047114 19.91248143 -13.58984375 23.234375 C-14.28787109 24.10835938 -14.28787109 24.10835938 -15 25 C-15.66 25 -16.32 25 -17 25 C-17.226875 25.680625 -17.45375 26.36125 -17.6875 27.0625 C-19.31226146 30.6988709 -21.32803257 34.02829263 -24 37 C-24.66 37 -25.32 37 -26 37 C-26.99 39.475 -26.99 39.475 -28 42 C-28.66 42 -29.32 42 -30 42 C-24.73217271 30.43850536 -15.04217799 20.03628981 -7.35888672 10.02172852 C-6.6938916 9.15475342 -6.02889648 8.28777832 -5.34375 7.39453125 C-4.74755859 6.61956299 -4.15136719 5.84459473 -3.53710938 5.04614258 C-2.30335199 3.40381083 -1.13942102 1.70913153 0 0 Z " fill="#484848" transform="translate(484,248)"/>
<path d="M0 0 C11.48431489 5.06965252 18.21487197 17.75209848 22.609375 28.953125 C24.94618943 35.33378852 26.69642377 41.17504709 26 48 C25.67 48 25.34 48 25 48 C24.65388672 46.33324219 24.65388672 46.33324219 24.30078125 44.6328125 C22.47385403 36.16684319 20.56964698 28.46552792 16 21 C15.5359375 20.23429687 15.071875 19.46859375 14.59375 18.6796875 C10.62746359 12.4559934 6.19343144 6.12895429 0 2 C0 1.34 0 0.68 0 0 Z " fill="#595959" transform="translate(230,238)"/>
<path d="M0 0 C0 0.33 0 0.66 0 1 C-1.7634375 0.7834375 -1.7634375 0.7834375 -3.5625 0.5625 C-4.22378906 0.48128906 -4.88507813 0.40007812 -5.56640625 0.31640625 C-7.47574436 0.06816165 -9.37988249 -0.22012411 -11.28125 -0.5234375 C-15.18345864 -1.02351046 -19.01057347 -1.19117389 -22.9375 -1.1875 C-23.66316162 -1.18814453 -24.38882324 -1.18878906 -25.13647461 -1.18945312 C-32.84314797 -1.11625428 -40.38933607 -0.14723332 -48 1 C-38.12051004 -8.87948996 -11.52855945 -4.86488856 0 0 Z " fill="#4E4E4E" transform="translate(214,228)"/>
<path d="M0 0 C1 3 1 3 -0.3125 5.6875 C-0.869375 6.450625 -1.42625 7.21375 -2 8 C-2.66 8 -3.32 8 -4 8 C-4.2371875 8.67417969 -4.474375 9.34835937 -4.71875 10.04296875 C-6.31027846 13.71609999 -8.33514083 16.95454752 -10.5 20.3125 C-10.90347656 20.95767578 -11.30695313 21.60285156 -11.72265625 22.26757812 C-12.75845742 23.88281262 -13.87340548 25.44672883 -15 27 C-15.66 27 -16.32 27 -17 27 C-17.3403125 28.2684375 -17.3403125 28.2684375 -17.6875 29.5625 C-19.19238618 33.50386856 -21.12703255 36.88761859 -24 40 C-24.66 40 -25.32 40 -26 40 C-24.51883844 35.78698346 -22.34335904 32.28420006 -19.82421875 28.6328125 C-19.41718216 28.03499969 -19.01014557 27.43718689 -18.59077454 26.82125854 C-17.29413653 24.91941946 -15.99085652 23.0222392 -14.6875 21.125 C-13.82314585 19.85836069 -12.95920957 18.59143612 -12.09570312 17.32421875 C-8.12485428 11.50556613 -4.13094076 5.70666044 0 0 Z " fill="#4A4A4A" transform="translate(400,361)"/>
<path d="M0 0 C-0.33 0.99 -0.66 1.98 -1 3 C-4.5625 4.1875 -4.5625 4.1875 -8 5 C-8 5.66 -8 6.32 -8 7 C-8.73605469 7.19335938 -9.47210938 7.38671875 -10.23046875 7.5859375 C-11.69419922 7.97652344 -11.69419922 7.97652344 -13.1875 8.375 C-14.15042969 8.63023437 -15.11335938 8.88546875 -16.10546875 9.1484375 C-18.98860325 9.94711489 -18.98860325 9.94711489 -21.64453125 11.05859375 C-26.47125411 12.98768199 -30.99396504 13.36528226 -36 12 C-36 11.67 -36 11.34 -36 11 C-34.63681641 10.77957031 -34.63681641 10.77957031 -33.24609375 10.5546875 C-22.77892199 8.68669992 -13.20514283 5.70655056 -3.69921875 0.81640625 C-2 0 -2 0 0 0 Z " fill="#575757" transform="translate(250,418)"/>
<path d="M0 0 C0.33 0.66 0.66 1.32 1 2 C-1.56175929 5.68801508 -4.1245409 9.37531864 -6.6875 13.0625 C-7.40873047 14.10083984 -8.12996094 15.13917969 -8.87304688 16.20898438 C-10.27796062 18.22975071 -11.6852775 20.24884882 -13.09521484 22.26611328 C-14.26150147 23.94005299 -15.42002016 25.61948059 -16.56494141 27.30810547 C-17.66149559 28.9064248 -18.82273395 30.46016222 -20 32 C-20.66 32 -21.32 32 -22 32 C-20.39731539 26.88142602 -17.24328696 23.11017226 -14 18.9375 C-12.91370423 17.53223295 -11.83026676 16.12475073 -10.75 14.71484375 C-10.27046875 14.09730225 -9.7909375 13.47976074 -9.296875 12.84350586 C-7.9770129 10.96732387 -6.97185765 9.07465249 -6 7 C-5.34 7 -4.68 7 -4 7 C-3.71125 6.21625 -3.4225 5.4325 -3.125 4.625 C-2 2 -2 2 0 0 Z " fill="#3E3E3E" transform="translate(344,374)"/>
<path d="M0 0 C7.54290017 -0.4946164 13.058915 1.09382609 20 4 C20 4.66 20 5.32 20 6 C20.7425 6.12375 21.485 6.2475 22.25 6.375 C24.8733911 6.97122525 26.77764568 7.49197386 29 9 C29.609375 11.07421875 29.609375 11.07421875 30 13 C29.48203857 12.74307373 28.96407715 12.48614746 28.43041992 12.22143555 C14.69224029 5.32897061 14.69224029 5.32897061 0 1 C0 0.67 0 0.34 0 0 Z " fill="#4E4E4E" transform="translate(217,193)"/>
<path d="M0 0 C0.66 0.33 1.32 0.66 2 1 C1.23439544 2.2739902 0.46227374 3.54406512 -0.3125 4.8125 C-0.74175781 5.52019531 -1.17101562 6.22789062 -1.61328125 6.95703125 C-2.93137227 8.89889492 -4.32964176 10.36546713 -6 12 C-6.99 13.485 -6.99 13.485 -8 15 C-8.66 15 -9.32 15 -10 15 C-10.226875 15.680625 -10.45375 16.36125 -10.6875 17.0625 C-12.35572357 20.79614324 -14.55729608 23.72163421 -17 27 C-17.33 26.01 -17.66 25.02 -18 24 C-16.8918457 21.99462891 -16.8918457 21.99462891 -15.17578125 19.7265625 C-14.55896484 18.9015625 -13.94214844 18.0765625 -13.30664062 17.2265625 C-12.64857422 16.36804688 -11.99050781 15.50953125 -11.3125 14.625 C-10.67376953 13.77421875 -10.03503906 12.9234375 -9.37695312 12.046875 C-6.31422186 7.98012531 -3.21127737 3.95109063 0 0 Z " fill="#444444" transform="translate(503,223)"/>
<path d="M0 0 C3.76347388 4.50338015 6.99713105 9.31208757 10.25 14.1875 C11.08144531 15.41629883 11.08144531 15.41629883 11.9296875 16.66992188 C12.45304687 17.45302734 12.97640625 18.23613281 13.515625 19.04296875 C14.23153809 20.11067505 14.23153809 20.11067505 14.96191406 21.19995117 C16 23 16 23 16 25 C12.39584951 23.7986165 11.85293989 22.73856012 9.8125 19.625 C9.28269531 18.83351563 8.75289063 18.04203125 8.20703125 17.2265625 C7 15 7 15 7 12 C6.34 12 5.68 12 5 12 C3.7109375 10.390625 3.7109375 10.390625 2.375 8.25 C1.92898438 7.55390625 1.48296875 6.8578125 1.0234375 6.140625 C0 4 0 4 0 0 Z " fill="#454545" transform="translate(470,406)"/>
<path d="M0 0 C0.66 0 1.32 0 2 0 C3.08955258 1.72940064 4.09480268 3.51207969 5.0625 5.3125 C8.2225686 10.91052509 11.82384937 15.73710975 15.984375 20.625 C17.74379333 22.69811307 19.39532306 24.80626444 21 27 C17.18063472 25.44396229 14.73955562 23.04395069 12 20 C12 19.34 12 18.68 12 18 C11.34 18 10.68 18 10 18 C9.04038399 16.66339198 8.09439197 15.31494177 7.21875 13.921875 C6.31362927 12.49456923 5.36974606 11.09169285 4.40625 9.703125 C3.8596875 8.91421875 3.313125 8.1253125 2.75 7.3125 C2.22921875 6.56613281 1.7084375 5.81976563 1.171875 5.05078125 C0 3 0 3 0 0 Z " fill="#484848" transform="translate(99,378)"/>
<path d="M0 0 C2.79050082 1.39525041 3.46924934 3.30587883 5 6 C5.556875 6.886875 6.11375 7.77375 6.6875 8.6875 C8 11 8 11 8 13 C8.99 13.33 9.98 13.66 11 14 C11.9963083 15.62730355 12.98236018 17.26307212 13.8828125 18.9453125 C15.75882092 22.39559372 17.89841327 25.68397176 20 29 C16.00971883 27.48673189 14.43837445 25.16030146 12.109375 21.66015625 C11.40039062 20.59732422 10.69140625 19.53449219 9.9609375 18.43945312 C9.59838867 17.88523682 9.23583984 17.33102051 8.86230469 16.76000977 C7.75102316 15.06406146 6.62289365 13.38030847 5.4921875 11.69726562 C0 3.39360119 0 3.39360119 0 0 Z " fill="#3E3E3E" transform="translate(397,239)"/>
<path d="M0 0 C1 3 1 3 0.1875 5.125 C-1 7 -1 7 -3 8 C-3.94478665 9.61963425 -4.884384 11.24259584 -5.79296875 12.8828125 C-7.14906078 15.26145935 -8.58036377 17.57272387 -10.0625 19.875 C-10.54847656 20.63554687 -11.03445313 21.39609375 -11.53515625 22.1796875 C-13 24 -13 24 -16 25 C-14.34364039 19.80317174 -11.15988791 15.74220358 -8 11.375 C-6.91645732 9.86212908 -5.83311584 8.34911404 -4.75 6.8359375 C-4.27046875 6.17126465 -3.7909375 5.5065918 -3.296875 4.82177734 C-2.16771206 3.23559251 -1.08002725 1.62004087 0 0 Z " fill="#4A4A4A" transform="translate(373,401)"/>
<path d="M0 0 C0.66 0.33 1.32 0.66 2 1 C1.63237549 1.50861572 1.26475098 2.01723145 0.88598633 2.54125977 C-0.80537472 4.88152948 -2.49643913 7.22201338 -4.1875 9.5625 C-4.76564453 10.36236328 -5.34378906 11.16222656 -5.93945312 11.98632812 C-9.30701873 16.64764774 -12.66233948 21.31721829 -16 26 C-16.33 25.01 -16.66 24.02 -17 23 C-15.58075324 20.66064834 -14.14041154 18.55046652 -12.5 16.375 C-12.04383301 15.75415527 -11.58766602 15.13331055 -11.11767578 14.49365234 C-7.50092007 9.59471928 -3.80097067 4.75750634 0 0 Z " fill="#4D4D4D" transform="translate(362,349)"/>
<path d="M0 0 C3.48774555 4.30690129 6.84856045 8.70261685 10.1875 13.125 C10.73341797 13.84042969 11.27933594 14.55585938 11.84179688 15.29296875 C12.36193359 15.98261719 12.88207031 16.67226563 13.41796875 17.3828125 C13.89000732 18.00559082 14.3620459 18.62836914 14.84838867 19.27001953 C16 21 16 21 17 24 C13.71899996 22.61366818 12.0725069 21.15453226 10.01953125 18.26171875 C9.49552734 17.52373047 8.97152344 16.78574219 8.43164062 16.02539062 C7.63016602 14.86813477 7.63016602 14.86813477 6.8125 13.6875 C6.26658203 12.92759766 5.72066406 12.16769531 5.15820312 11.38476562 C2.4575133 7.53285238 0.71347236 4.72270346 0 0 Z " fill="#3C3C3C" transform="translate(472,337)"/>
<path d="M0 0 C3.56348283 3.30776994 6.24014855 6.96916815 9 10.9375 C9.85276962 12.1559269 10.70691563 13.37339173 11.5625 14.58984375 C11.96984375 15.16976074 12.3771875 15.74967773 12.796875 16.34716797 C13.91235604 17.87959627 15.1097026 19.35151279 16.3125 20.81640625 C18 23 18 23 18 25 C17.01 24.67 16.02 24.34 15 24 C14.66666667 22.66666667 14.33333333 21.33333333 14 20 C13.01 19.67 12.02 19.34 11 19 C9.39453125 17.00390625 9.39453125 17.00390625 7.8125 14.5625 C7.01779297 13.35787109 7.01779297 13.35787109 6.20703125 12.12890625 C5 10 5 10 5 8 C4.34 8 3.68 8 3 8 C0.95830515 5.09451118 0 3.59857954 0 0 Z " fill="#4B4B4B" transform="translate(366,265)"/>
<path d="M0 0 C4.71997603 2.03405055 6.56078562 5.19397787 9.3125 9.375 C9.77978516 10.04789062 10.24707031 10.72078125 10.72851562 11.4140625 C11.16486328 12.06890625 11.60121094 12.72375 12.05078125 13.3984375 C12.64886597 14.29054932 12.64886597 14.29054932 13.2590332 15.20068359 C14.20496438 17.49772239 13.80595975 18.69951811 13 21 C11.89500435 19.27136297 10.79104086 17.54206612 9.6875 15.8125 C9.07261719 14.84957031 8.45773437 13.88664062 7.82421875 12.89453125 C7.22222656 11.93933594 6.62023437 10.98414063 6 10 C5.42894531 9.09636719 4.85789062 8.19273437 4.26953125 7.26171875 C3 5 3 5 3 3 C2.34 3 1.68 3 1 3 C0.67 2.01 0.34 1.02 0 0 Z " fill="#3D3D3D" transform="translate(456,388)"/>
<path d="M0 0 C0.33 0.99 0.66 1.98 1 3 C-0.34478654 5.11536113 -1.69083911 6.9921032 -3.25 8.9375 C-4.05953125 9.97777344 -4.8690625 11.01804687 -5.703125 12.08984375 C-6.46109375 13.05019531 -7.2190625 14.01054687 -8 15 C-8.82757813 16.17755859 -8.82757813 16.17755859 -9.671875 17.37890625 C-10.11015625 17.91386719 -10.5484375 18.44882812 -11 19 C-11.66 19 -12.32 19 -13 19 C-11.68779266 16.22561876 -10.22517631 13.79209828 -8.3984375 11.328125 C-7.90859375 10.66425781 -7.41875 10.00039063 -6.9140625 9.31640625 C-6.40617187 8.63449219 -5.89828125 7.95257813 -5.375 7.25 C-4.859375 6.55261719 -4.34375 5.85523438 -3.8125 5.13671875 C-2.54440881 3.42244733 -1.2725711 1.71094844 0 0 Z " fill="#525252" transform="translate(484,248)"/>
<path d="M0 0 C0.66 0.33 1.32 0.66 2 1 C-1.96 6.61 -5.92 12.22 -10 18 C-10.66 17.34 -11.32 16.68 -12 16 C-11.57847656 15.44570313 -11.15695312 14.89140625 -10.72265625 14.3203125 C-10.17480469 13.59585937 -9.62695312 12.87140625 -9.0625 12.125 C-8.24458984 11.04605469 -8.24458984 11.04605469 -7.41015625 9.9453125 C-5.96035376 8.05642921 -5.96035376 8.05642921 -5 6 C-4.34 6 -3.68 6 -3 6 C-2.690625 5.195625 -2.38125 4.39125 -2.0625 3.5625 C-1 1 -1 1 0 0 Z " fill="#4B4B4B" transform="translate(321,406)"/>
<path d="M0 0 C0.66 0.33 1.32 0.66 2 1 C-3.07100721 5.79465804 -8.38487086 10.49486234 -15 13 C-15.99 12.67 -16.98 12.34 -18 12 C-12.25 9 -12.25 9 -10 9 C-10 8.34 -10 7.68 -10 7 C-8.03501678 5.61558 -6.02951535 4.28796166 -4 3 C-2.65824027 2.01133494 -1.32103998 1.0161846 0 0 Z " fill="#3F3F3F" transform="translate(241,380)"/>
<path d="M0 0 C2.06307829 3.09461743 3.24271634 5.96666595 4.5625 9.4375 C4.99691406 10.57058594 5.43132812 11.70367187 5.87890625 12.87109375 C6.73233764 15.25297022 7.46080533 17.53424459 8 20 C7.34 20 6.68 20 6 20 C2.53373983 13.37035677 -0.36540529 7.67351104 0 0 Z " fill="#595959" transform="translate(92,358)"/>
<path d="M0 0 C0.66 0 1.32 0 2 0 C3.32861328 1.62060547 3.32861328 1.62060547 4.8203125 3.8671875 C5.35527344 4.67027344 5.89023437 5.47335937 6.44140625 6.30078125 C6.99699219 7.15027344 7.55257813 7.99976563 8.125 8.875 C8.68832031 9.71675781 9.25164062 10.55851562 9.83203125 11.42578125 C14 17.73324001 14 17.73324001 14 20 C9.97979992 18.65993331 9.57040484 16.9169977 7.5625 13.25 C5.78584793 10.02261413 4.08778029 7.10922398 1.77734375 4.234375 C0 2 0 2 0 0 Z " fill="#464646" transform="translate(419,332)"/>
<path d="M0 0 C0.33 0.66 0.66 1.32 1 2 C0.55527344 2.51949219 0.11054688 3.03898437 -0.34765625 3.57421875 C-3.94742754 7.72114697 -3.94742754 7.72114697 -5 12.875 C-4.07605507 15.14975791 -4.07605507 15.14975791 -2 17 C-2.33 17.99 -2.66 18.98 -3 20 C-3.86949317 18.92892883 -4.72014205 17.84254056 -5.5625 16.75 C-6.03816406 16.14671875 -6.51382812 15.5434375 -7.00390625 14.921875 C-8 13 -8 13 -7.875 11.0625 C-6.75721075 8.42771105 -5.2357701 6.47331576 -3.4375 4.25 C-2.79683594 3.45078125 -2.15617187 2.6515625 -1.49609375 1.828125 C-1.00238281 1.22484375 -0.50867188 0.6215625 0 0 Z " fill="#4D4D4D" transform="translate(453,290)"/>
<path d="M0 0 C4.14948904 3.90540145 8.14709989 8.03010688 11 13 C11.07319557 16.29380057 10.5613729 17.34880744 8.4375 19.8125 C7.963125 20.204375 7.48875 20.59625 7 21 C7.33 19.88625 7.66 18.7725 8 17.625 C8.4650273 14.3227175 8.12928829 13.19996981 6.28515625 10.34765625 C4.82371878 8.59855447 3.32401243 6.88061049 1.78515625 5.19921875 C0 3 0 3 0 0 Z " fill="#4A4A4A" transform="translate(384,290)"/>
<path d="M0 0 C0.66 0 1.32 0 2 0 C0.56525156 4.09501116 -1.43465486 7.2603761 -4 10.75 C-4.70125 11.71421875 -5.4025 12.6784375 -6.125 13.671875 C-8 16 -8 16 -10 17 C-9.39774044 13.02885101 -7.38659141 10.53723362 -5 7.375 C-2.26818173 3.83101471 -2.26818173 3.83101471 0 0 Z " fill="#3B3B3B" transform="translate(373,332)"/>
<path d="M0 0 C4.00999606 1.52977276 5.82653233 4.01531782 8.3125 7.4375 C9.03050781 8.40558594 9.74851562 9.37367188 10.48828125 10.37109375 C11.23658203 11.67240234 11.23658203 11.67240234 12 13 C11.67 13.99 11.34 14.98 11 16 C9.82455195 14.56967163 8.65989738 13.13046758 7.5 11.6875 C6.8503125 10.88699219 6.200625 10.08648437 5.53125 9.26171875 C4 7 4 7 4 4 C3.01 3.67 2.02 3.34 1 3 C0.67 2.01 0.34 1.02 0 0 Z " fill="#3E3E3E" transform="translate(354,251)"/>
<path d="M0 0 C-1.58093054 1.12837409 -3.16484716 2.25256518 -4.75 3.375 C-5.63171875 4.00148438 -6.5134375 4.62796875 -7.421875 5.2734375 C-9.57414979 6.71480941 -11.65460523 7.91498093 -14 9 C-14 8.01 -14 7.02 -14 6 C-11.69921875 4.140625 -11.69921875 4.140625 -8.6875 2.25 C-7.70136719 1.61578125 -6.71523438 0.9815625 -5.69921875 0.328125 C-3 -1 -3 -1 0 0 Z " fill="#3F3F3F" transform="translate(264,411)"/>
<path d="M0 0 C3.55516781 2.08185502 6.94832145 4.31014716 10.3125 6.6875 C11.19550781 7.31011719 12.07851562 7.93273437 12.98828125 8.57421875 C13.65214844 9.04472656 14.31601563 9.51523437 15 10 C13.18359375 10.6015625 13.18359375 10.6015625 11 11 C6.69301444 8.61741224 3.27660298 5.66208568 0 2 C0 1.34 0 0.68 0 0 Z " fill="#4D4D4D" transform="translate(120,405)"/>
<path d="M0 0 C3.68069887 1.53643852 5.98775204 3.78150945 8.75 6.625 C9.54921875 7.44226563 10.3484375 8.25953125 11.171875 9.1015625 C12.07679688 10.04128906 12.07679688 10.04128906 13 11 C12.67 11.99 12.34 12.98 12 14 C11.38511719 13.30132812 10.77023438 12.60265625 10.13671875 11.8828125 C9.32847656 10.97273437 8.52023438 10.06265625 7.6875 9.125 C6.88699219 8.22007812 6.08648437 7.31515625 5.26171875 6.3828125 C3.04188943 3.86787689 3.04188943 3.86787689 0 2 C0 1.34 0 0.68 0 0 Z " fill="#494949" transform="translate(230,238)"/>
<path d="M0 0 C3.99848769 0.58251349 6.81303838 1.83313278 10.25 3.9375 C11.12140625 4.46214844 11.9928125 4.98679688 12.890625 5.52734375 C15 7 15 7 16 9 C11.93009579 7.76956384 8.57525794 6.29183202 5 4 C4.071875 3.46375 3.14375 2.9275 2.1875 2.375 C1.465625 1.92125 0.74375 1.4675 0 1 C0 0.67 0 0.34 0 0 Z " fill="#4D4D4D" transform="translate(214,229)"/>
<path d="M0 0 C3 2 3 2 3.94921875 5.6953125 C4.20822654 7.16966453 4.45383827 8.64641921 4.6875 10.125 C4.81705078 10.87910156 4.94660156 11.63320313 5.08007812 12.41015625 C5.39815904 14.27151866 5.70058286 16.13554435 6 18 C5.34 17.67 4.68 17.34 4 17 C3.18359375 14.19921875 3.18359375 14.19921875 2.4375 10.6875 C2.18871094 9.53636719 1.93992187 8.38523437 1.68359375 7.19921875 C1.45800781 6.14347656 1.23242188 5.08773438 1 4 C0.67428522 2.66478512 0.3449145 1.33038449 0 0 Z " fill="#414141" transform="translate(87,346)"/>
<path d="M0 0 C2.90646395 3.52927766 5.68287538 7.05230621 8 11 C7.67 11.99 7.34 12.98 7 14 C4.36 10.04 1.72 6.08 -1 2 C-0.67 1.34 -0.34 0.68 0 0 Z " fill="#4B4B4B" transform="translate(389,227)"/>
<path d="M0 0 C0.33 0 0.66 0 1 0 C1.37851209 5.93002267 0.10575375 10.47239641 -2 16 C-2.33 16 -2.66 16 -3 16 C-2.57910004 10.39538469 -2.08386889 5.27913453 0 0 Z " fill="#444444" transform="translate(293,356)"/>
<path d="M0 0 C1 3 1 3 -0.21484375 5.69921875 C-0.78332031 6.68535156 -1.35179688 7.67148438 -1.9375 8.6875 C-2.50339844 9.68136719 -3.06929688 10.67523438 -3.65234375 11.69921875 C-4.31943359 12.83810547 -4.31943359 12.83810547 -5 14 C-6.2077558 10.37673261 -5.54311128 9.35853631 -4 6 C-3.34 6 -2.68 6 -2 6 C-1.855625 5.195625 -1.71125 4.39125 -1.5625 3.5625 C-1 1 -1 1 0 0 Z " fill="#3C3C3C" transform="translate(100,242)"/>
<path d="M0 0 C4.24404412 3.88026891 7.10917547 8.04254346 10 13 C6.63834194 11.58956521 4.90494768 9.98473966 2.75 7.0625 C2.22921875 6.37285156 1.7084375 5.68320313 1.171875 4.97265625 C0 3 0 3 0 0 Z " fill="#525252" transform="translate(346,238)"/>
<path d="M0 0 C5.68141651 0.81163093 9.54414164 3.53433239 14 7 C8.39958947 6.57996921 4.411509 4.31423011 0 1 C0 0.67 0 0.34 0 0 Z " fill="#424242" transform="translate(153,385)"/>
<path d="M0 0 C3.9036874 3.46994436 6.36588975 7.55224006 9 12 C8.01 12.495 8.01 12.495 7 13 C5.82479354 11.40207898 4.66008753 9.79643092 3.5 8.1875 C2.8503125 7.29417969 2.200625 6.40085938 1.53125 5.48046875 C0 3 0 3 0 0 Z " fill="#505050" transform="translate(322,205)"/>
<path d="M0 0 C0.66 0 1.32 0 2 0 C0.63589551 5.59282842 -2.15383526 8.91193811 -6 13 C-6.33 12.34 -6.66 11.68 -7 11 C-6.21625 10.113125 -5.4325 9.22625 -4.625 8.3125 C-2.42843009 5.69279481 -1.06209659 3.28284399 0 0 Z " fill="#373737" transform="translate(250,367)"/>
<path d="M0 0 C0.33 0.99 0.66 1.98 1 3 C-0.43359375 5.48046875 -0.43359375 5.48046875 -2.4375 8.1875 C-3.09621094 9.08855469 -3.75492187 9.98960937 -4.43359375 10.91796875 C-5.20896484 11.94857422 -5.20896484 11.94857422 -6 13 C-6.33 12.01 -6.66 11.02 -7 10 C-5.56640625 7.51953125 -5.56640625 7.51953125 -3.5625 4.8125 C-2.90378906 3.91144531 -2.24507813 3.01039063 -1.56640625 2.08203125 C-1.04949219 1.39496094 -0.53257812 0.70789063 0 0 Z " fill="#474747" transform="translate(352,362)"/>
<path d="M0 0 C0.66 0.66 1.32 1.32 2 2 C-0.31 5.63 -2.62 9.26 -5 13 C-5.66 12.01 -6.32 11.02 -7 10 C-3.535 5.05 -3.535 5.05 0 0 Z " fill="#4C4C4C" transform="translate(107,231)"/>
<path d="M0 0 C1.98 0.99 1.98 0.99 4 2 C4 2.66 4 3.32 4 4 C4.598125 4.103125 5.19625 4.20625 5.8125 4.3125 C8.28243264 5.08876455 9.32251235 6.07088921 11 8 C10.67 8.66 10.34 9.32 10 10 C8.32756598 8.71580959 6.66218553 7.42242815 5 6.125 C3.6078125 5.04605469 3.6078125 5.04605469 2.1875 3.9453125 C1.465625 3.30335938 0.74375 2.66140625 0 2 C0 1.34 0 0.68 0 0 Z " fill="#434343" transform="translate(247,204)"/>
<path d="M0 0 C0.66 0 1.32 0 2 0 C2.66 1.65 3.32 3.3 4 5 C4.66 5 5.32 5 6 5 C7.0625 6.8125 7.0625 6.8125 8 9 C7.67 9.99 7.34 10.98 7 12 C5.82767315 10.3790787 4.6622923 8.75313167 3.5 7.125 C2.8503125 6.22007812 2.200625 5.31515625 1.53125 4.3828125 C0 2 0 2 0 0 Z " fill="#474747" transform="translate(498,375)"/>
<path d="M0 0 C0.66 0.66 1.32 1.32 2 2 C-0.31 5.3 -2.62 8.6 -5 12 C-5.33 11.01 -5.66 10.02 -6 9 C-4.78515625 6.73828125 -4.78515625 6.73828125 -3.0625 4.3125 C-2.49660156 3.50425781 -1.93070312 2.69601563 -1.34765625 1.86328125 C-0.90292969 1.24839844 -0.45820313 0.63351563 0 0 Z " fill="#4C4C4C" transform="translate(470,201)"/>
<path d="M0 0 C1.62600941 0.0870005 3.25089678 0.1951781 4.875 0.3125 C5.77992188 0.37050781 6.68484375 0.42851562 7.6171875 0.48828125 C10 1 10 1 12 4 C7.6822542 3.49202991 3.96697886 2.80317221 0 1 C0 0.67 0 0.34 0 0 Z " fill="#323232" transform="translate(153,426)"/>
<path d="M0 0 C2.6486859 3.19668988 4.93992341 6.39486597 7 10 C6.01 10 5.02 10 4 10 C1.09677182 6.35022743 0 4.74147821 0 0 Z " fill="#5A5A5A" transform="translate(470,406)"/>
<path d="M0 0 C1.33895632 1.66215268 2.67130142 3.32963607 4 5 C4.5775 5.721875 5.155 6.44375 5.75 7.1875 C7 9 7 9 7 11 C6.34 11 5.68 11 5 11 C3.7109375 9.609375 3.7109375 9.609375 2.375 7.75 C1.92898438 7.14671875 1.48296875 6.5434375 1.0234375 5.921875 C0 4 0 4 0 0 Z " fill="#3C3C3C" transform="translate(382,217)"/>
<path d="M0 0 C0.99 0.33 1.98 0.66 3 1 C-1.455 4.465 -1.455 4.465 -6 8 C-6.66 7.34 -7.32 6.68 -8 6 C-6.7391988 4.96680187 -5.46596742 3.94875621 -4.1875 2.9375 C-3.47980469 2.36902344 -2.77210938 1.80054688 -2.04296875 1.21484375 C-1.36878906 0.81394531 -0.69460937 0.41304687 0 0 Z " fill="#4A4A4A" transform="translate(131,208)"/>
<path d="M0 0 C0.33 0.99 0.66 1.98 1 3 C-0.9375 6.1875 -0.9375 6.1875 -3 9 C-3.99 8.67 -4.98 8.34 -6 8 C-5.34 8 -4.68 8 -4 8 C-3.71125 7.05125 -3.4225 6.1025 -3.125 5.125 C-2 2 -2 2 0 0 Z " fill="#383838" transform="translate(463,211)"/>
<path d="M0 0 C0.33 0.99 0.66 1.98 1 3 C0.07421875 4.82421875 0.07421875 4.82421875 -1.3125 6.6875 C-1.76238281 7.31011719 -2.21226562 7.93273437 -2.67578125 8.57421875 C-3.11277344 9.04472656 -3.54976563 9.51523438 -4 10 C-4.66 10 -5.32 10 -6 10 C-4.34832443 6.4213696 -2.21713508 3.25179812 0 0 Z " fill="#535353" transform="translate(510,213)"/>
<path d="M0 0 C0 0.66 0 1.32 0 2 C-4.01804691 2.84098656 -7.01803543 3.05404945 -11 2 C-11 1.67 -11 1.34 -11 1 C-7.26562152 0.12132271 -3.83225427 -0.08912219 0 0 Z " fill="#5B5B5B" transform="translate(225,428)"/>
<path d="M0 0 C-2.93828597 2.50298434 -5.17902761 3.46930939 -9 4 C-9.33 3.01 -9.66 2.02 -10 1 C-6.59437148 0.22157062 -3.49234244 -0.09978121 0 0 Z " fill="#434343" transform="translate(234,426)"/>
<path d="M0 0 C2.0245738 1.93254772 3.42105792 3.63158688 5 6 C4.625 8.1875 4.625 8.1875 4 10 C0 4.5 0 4.5 0 0 Z " fill="#464646" transform="translate(465,399)"/>
<path d="M0 0 C0.66 0 1.32 0 2 0 C0.52307692 4.67692308 0.52307692 4.67692308 -2.125 6.3125 C-3.053125 6.6528125 -3.053125 6.6528125 -4 7 C-2.68 4.69 -1.36 2.38 0 0 Z " fill="#353535" transform="translate(308,423)"/>
<path d="M0 0 C0.33 1.32 0.66 2.64 1 4 C0.34 4 -0.32 4 -1 4 C-1.66 5.65 -2.32 7.3 -3 9 C-3.66 9 -4.32 9 -5 9 C-3.50163895 5.88801935 -1.80066242 2.9465385 0 0 Z " fill="#4F4F4F" transform="translate(459,281)"/>
<path d="M0 0 C0.66 0 1.32 0 2 0 C0.87548273 2.9719385 -0.22293791 5.33440687 -2 8 C-2.99 7.67 -3.98 7.34 -5 7 C-4.34 7 -3.68 7 -3 7 C-2.690625 6.21625 -2.38125 5.4325 -2.0625 4.625 C-1 2 -1 2 0 0 Z " fill="#3B3B3B" transform="translate(440,243)"/>
</svg>
